<?xml version="1.0" encoding="utf-8"?>
<!-- Generator: Adobe Illustrator 17.0.0, SVG Export Plug-In . SVG Version: 6.00 Build 0)  -->
<!DOCTYPE svg PUBLIC "-//W3C//DTD SVG 1.1//EN" "http://www.w3.org/Graphics/SVG/1.1/DTD/svg11.dtd">
<svg version="1.1" id="Layer_1" xmlns="http://www.w3.org/2000/svg" xmlns:xlink="http://www.w3.org/1999/xlink" x="0px" y="0px"
	 width="841.89px" height="595.28px" viewBox="0 0 841.89 595.28" enable-background="new 0 0 841.89 595.28" xml:space="preserve">
<path display="none" fill="#2D4B0F" d="M-1640.452,343.435c0,0,34.034-24.059,57.506-18.778c23.472,5.281,41.076,9.01,41.076,9.01
	s-13.496,15.636-21.712,17.983c-8.215,2.347-17.017,5.281-9.389,5.281c7.628,0,34.621-1.76,45.184-22.298
	c10.562-20.538,24.059-55.746,36.382-58.68c12.323-2.934,21.712,9.389,46.357,24.646c24.646,15.257,37.555,15.626,37.555,15.626
	s-21.125-9.758-23.472-16.8c-2.347-7.042,12.323-18.191,19.364-19.951c7.042-1.76,36.382,18.778,62.201,39.316
	c25.819,20.538,52.812,33.448,52.812,33.448s-23.472-17.017-25.819-25.232c-2.347-8.215,2.934-14.67,6.455-14.67
	c3.521,0,11.736-7.042,29.927,9.389c18.191,16.43,46.357,34.621,56.92,39.902c10.562,5.281,10.562,5.281,10.562,5.281
	s-55.159-48.704-74.524-65.135c-19.364-16.43-32.861-1.174-36.382,2.347c-3.521,3.521-24.646-12.91-52.225-31.687
	c-27.58-18.778-24.646-25.232-43.423-9.976c-18.778,15.257-18.778,15.257-24.646,11.736c-4.956-2.973-26.872-36.884-29.406-42.584
	c-4.694-10.562-12.961-7.296-19.885,6.79c-6.368,12.953-28.166,75.11-45.77,74.524c-26.044-0.868-22.885-10.562-44.597-5.868
	C-1611.112,311.748-1640.452,343.435-1640.452,343.435z"/>
<g display="none">
	<path display="inline" fill="#623D18" d="M-1400.01,342.555c0,0-23.325,15.844-26.406,21.565
		c-3.081,5.721-13.643,10.122-15.403,23.325c-1.76,13.203-1.76,13.203-1.76,13.203s-18.843-30.524,2.201-52.959
		c9.04-9.638,20.538-11.296,25.379-11.296C-1392.675,336.394-1400.01,342.555-1400.01,342.555z"/>
	<path display="inline" fill="#623D18" d="M-1393.555,344.022c0,0-1.614,6.308-4.694,11.003
		c-3.081,4.694-21.629,15.55-26.878,20.245s-13.758,16.87-14.198,21.125c-0.44,4.254,9.095,7.188,17.751,4.254
		c8.655-2.934,30.073-17.457,31.834-35.501C-1387.981,347.103-1393.555,344.022-1393.555,344.022z"/>
</g>
<g display="none">
	<path display="inline" fill="#623D18" d="M-1485.041,352.978c0,0,4.673,15.724,7.302,18.44c2.629,2.716,3.208,9.348,10.217,12.651
		c7.01,3.303,7.01,3.303,7.01,3.303s-20.244,5.068-28.973-10.553c-3.75-6.71-2.643-13.377-1.79-16.061
		C-1487.165,347.826-1485.041,352.978-1485.041,352.978z"/>
	<path display="inline" fill="#623D18" d="M-1483.09,349.658c0,0,3.213,2.006,5.273,4.542c2.06,2.535,4.81,14.732,6.487,18.469
		c1.677,3.738,6.929,10.601,9.21,11.594c2.281,0.994,5.588-3.776,5.487-9.092s-4.379-19.75-14.073-23.906
		C-1480.4,347.11-1483.09,349.658-1483.09,349.658z"/>
</g>
<g display="none">
	<path display="inline" d="M-1534.854,228.171c-1.435,2.102-3.488,5.198-8.735,10.933c-6.268,6.851-13.558,11.301-23.223,2.458
		l-17.629-16.129c-9.664-8.842-5.776-16.503,0.491-23.354c5.247-5.735,8.101-8.001,10.067-9.617
		c0.786-0.646,1.343-0.722,2.034-0.091l4.938,4.519c0.584,0.534,0.625,1.45,0.09,2.034l-9.862,10.779
		c-2.283,2.496-2.26,4.176,0.501,6.702l4.832,4.421l12.583-13.753c0.534-0.584,1.449-0.625,2.034-0.091l5.044,4.616
		c0.584,0.535,0.625,1.45,0.09,2.034l-12.583,13.753l5.629,5.15c2.761,2.526,4.437,2.4,6.72-0.095l9.863-10.78
		c0.534-0.584,1.449-0.625,2.033-0.09l4.938,4.519C-1534.307,226.72-1534.28,227.33-1534.854,228.171z"/>
	<path display="inline" d="M-1504.417,207.488c-1.716,1.718-6.125,5.103-9.322,7.184c-7.781,5.065-16.013,7.589-23.158-3.389
		l-20.298-31.185c-0.432-0.663-0.242-1.56,0.421-1.991l7.902-5.143c0.663-0.432,1.56-0.243,1.991,0.421l20.298,31.185
		c2.042,3.136,3.695,3.434,6.53,1.589l10.375-6.753c0.664-0.432,1.56-0.242,1.992,0.421l3.651,5.61
		C-1503.525,206.22-1503.69,206.757-1504.417,207.488z"/>
	<path display="inline" d="M-1479.038,153.748c-0.068,0.022-0.137,0.043-0.206,0.065c-3.336,0.908-8.613,2.129-14.444,3.98
		c-5.557,1.764-8.138,5.528-5.286,14.515l2.722,8.576c3.005,9.467,8.023,10.291,11.385,9.224c1.921-0.61,3.614-1.223,5.217-1.882
		l-5.008-15.779c-0.24-0.755,0.113-1.546,0.868-1.786l8.781-2.787c0.755-0.24,1.568,0.182,1.808,0.937l7.316,23.051
		c0.305,0.96,0.092,1.481-0.872,2.013c-3.465,1.931-8.049,4.141-14.91,6.318c-7.821,2.482-20.967,1.746-26.476-15.61l-2.7-8.507
		c-5.553-17.494,3.962-25.347,13.909-28.504c6.86-2.178,12.126-2.716,14.839-2.973c0.729-0.081,1.297,0.042,1.493,0.659l2.308,7.272
		C-1478.052,153.284-1478.42,153.552-1479.038,153.748z"/>
	<path display="inline" d="M-1438.974,193.806c-11.874-0.191-21.197-6.748-20.928-23.442l0.138-8.563
		c0.269-16.695,9.799-22.947,21.672-22.756s21.197,6.748,20.928,23.442l-0.138,8.563
		C-1417.571,187.745-1427.101,193.998-1438.974,193.806z M-1429.541,162.288c0.139-8.635-2.68-12.352-8.725-12.449
		c-6.045-0.097-8.911,3.527-9.05,12.163l-0.138,8.563c-0.139,8.635,2.608,12.35,8.653,12.448c6.044,0.098,8.982-3.526,9.121-12.162
		L-1429.541,162.288z"/>
	<path display="inline" d="M-1375.237,206.95l-6.668-2.3c-1.429-0.493-2.355-1.117-2.81-3.33l-6.267-32.158
		c-0.131-0.502-0.221-0.685-0.425-0.755s-0.387,0.019-0.528,0.427l-9.504,27.556c-0.258,0.749-1.082,1.15-1.83,0.892l-8.029-2.769
		c-0.749-0.258-1.149-1.082-0.892-1.83l16.076-46.607c0.493-1.429,2.048-2.187,3.478-1.694l6.872,2.371
		c1.361,0.469,1.807,1.384,2.13,3.095l6.456,33.594c0.132,0.502,0.153,0.662,0.357,0.732c0.136,0.047,0.387-0.019,0.551-0.495
		l9.927-28.781c0.258-0.748,1.059-1.082,1.807-0.823l8.028,2.77c0.749,0.258,1.173,1.014,0.915,1.762l-16.099,46.675
		C-1372.185,206.709-1373.809,207.443-1375.237,206.95z"/>
	<path display="inline" d="M-1314.208,196.884l-9.376-6.931l-24.901,33.684c-0.471,0.637-1.376,0.772-2.013,0.302l-7.582-5.604
		c-0.637-0.471-0.772-1.377-0.302-2.014l24.901-33.684l-9.434-6.974c-0.637-0.471-0.815-1.318-0.345-1.955l4.407-5.961
		c0.471-0.637,1.333-0.714,1.97-0.244l28.707,21.222c0.637,0.471,0.873,1.362,0.402,1.999l-4.407,5.961
		C-1312.65,197.32-1313.571,197.355-1314.208,196.884z"/>
	<path display="inline" d="M-1329.179,244.72l-6.417-7.201c-0.526-0.592-0.378-1.398,0.213-1.925l37.834-33.709
		c0.591-0.527,1.356-0.534,1.883,0.058l6.416,7.201c0.527,0.591,0.48,1.404-0.111,1.931l-37.834,33.709
		C-1327.785,245.31-1328.652,245.311-1329.179,244.72z"/>
	<path display="inline" d="M-1297.817,257.607c-0.838-1.511-1.83-3.595-2.639-5.203l-15.295,8.483
		c-0.692,0.385-1.573,0.132-1.958-0.561l-4.503-8.119c-0.384-0.692-0.195-1.538,0.498-1.923l42.297-23.46
		c2.14-1.187,3.195-0.62,4.592,1.157c2.284,2.931,5.392,7.791,7.905,12.323c5.272,9.505,7.138,20.733-4.695,27.297l-0.566,0.314
		C-1283.952,274.444-1292.615,266.986-1297.817,257.607z M-1277.55,256.901c4.469-2.479,4.695-6.226,1.763-11.513
		c-0.489-0.882-2.535-4.273-3.017-4.994l-12.84,7.122c0.321,0.728,2.318,4.476,2.702,5.168c3.107,5.603,6.546,6.905,10.826,4.53
		L-1277.55,256.901z"/>
</g>
<g display="none">
	<path display="inline" fill="#623D18" d="M-1569.448,432.65c-1.663-1.085-5.599-4.6-9.501-9.516
		c-8.475-10.674-10.886-25.246,5.827-38.516l8.848-7.025c16.713-13.27,30.289-7.562,38.764,3.111
		c3.903,4.915,6.435,9.546,7.114,11.41c0.5,1.206,0.665,1.991-0.318,2.771l-6.812,5.408c-0.843,0.67-1.739,0.694-2.464-0.219
		c-0.056-0.07-0.111-0.141-0.167-0.211c-1.908-2.835-4.624-6.977-7.69-10.838c-3.847-4.846-9.441-6.7-18.781,0.715l-8.848,7.025
		c-9.339,7.415-8.801,13.285-4.954,18.13c3.067,3.862,6.484,7.445,8.814,9.946c0.056,0.07,0.111,0.141,0.167,0.211
		c0.725,0.913,0.498,1.78-0.345,2.449l-6.811,5.408C-1567.589,433.693-1568.386,433.41-1569.448,432.65z"/>
	<path display="inline" fill="#623D18" d="M-1526.354,465.313c-13.062-6.946-19.686-19.507-9.918-37.873l5.01-9.42
		c9.767-18.366,23.884-19.896,36.946-12.95c13.062,6.946,19.686,19.507,9.918,37.873l-5.01,9.42
		C-1499.176,470.729-1513.293,472.259-1526.354,465.313z M-1498.015,435.702c5.052-9.5,4.033-15.221-2.617-18.757
		c-6.649-3.537-11.884-1.142-16.936,8.358l-5.01,9.42c-5.052,9.5-4.111,15.179,2.538,18.715c6.65,3.537,11.963,1.184,17.015-8.316
		L-1498.015,435.702z"/>
	<path display="inline" fill="#623D18" d="M-1431.711,432.14l-18.161-1.221c-4.205-0.282-5.822,1.047-6.134,5.699l-0.541,8.052
		l23.17,1.557c0.984,0.066,1.735,0.926,1.669,1.909l-0.571,8.499c-0.066,0.984-0.926,1.735-1.91,1.669l-23.171-1.557l-1.755,26.123
		c-0.066,0.984-0.925,1.735-1.91,1.669l-11.63-0.781c-0.984-0.066-1.735-0.926-1.669-1.91l3.108-46.252
		c1.094-16.282,11.575-18.453,23.116-17.678c9.662,0.649,14.087,1.666,17.188,2.323c1.24,0.263,1.747,0.746,1.669,1.909l-0.559,8.32
		C-1429.867,431.456-1430.727,432.207-1431.711,432.14z"/>
	<path display="inline" fill="#623D18" d="M-1385.859,419.272l-17.318,5.598c-4.01,1.296-5.019,3.13-3.585,7.565l2.481,7.679
		l22.096-7.142c0.938-0.303,1.955,0.217,2.258,1.155l2.619,8.104c0.303,0.938-0.216,1.954-1.155,2.258l-22.096,7.141l8.051,24.911
		c0.303,0.938-0.216,1.955-1.155,2.258l-11.09,3.585c-0.938,0.303-1.955-0.217-2.258-1.155l-14.255-44.106
		c-5.018-15.526,3.911-21.428,14.916-24.984c9.213-2.978,13.7-3.674,16.823-4.212c1.25-0.216,1.899,0.045,2.258,1.154l2.564,7.935
		C-1384.401,417.954-1384.92,418.969-1385.859,419.272z"/>
	<path display="inline" fill="#623D18" d="M-1313.678,431.574c-2.125,2.353-5.179,5.829-12.619,12.025
		c-8.888,7.401-18.635,11.669-29.077-0.87l-19.048-22.872c-10.442-12.539-4.355-21.342,4.532-28.742
		c7.44-6.197,11.344-8.515,14.042-10.178c1.079-0.666,1.779-0.665,2.525,0.23l5.335,6.407c0.631,0.758,0.527,1.894-0.23,2.525
		l-13.985,11.646c-3.238,2.696-3.491,4.774-0.508,8.356l5.221,6.27l17.843-14.859c0.758-0.632,1.894-0.528,2.525,0.229l5.45,6.545
		c0.631,0.758,0.528,1.895-0.23,2.525l-17.843,14.86l6.082,7.303c2.983,3.582,5.073,3.709,8.311,1.013l13.985-11.646
		c0.758-0.632,1.895-0.528,2.525,0.229l5.336,6.407C-1312.759,429.875-1312.828,430.633-1313.678,431.574z"/>
	<path display="inline" fill="#623D18" d="M-1276.553,374.935c-1.104,2.972-2.655,7.333-7.276,15.843
		c-5.52,10.165-12.997,17.735-27.338,9.949l-26.161-14.205c-14.341-7.787-11.942-18.218-6.423-28.383
		c4.621-8.51,7.391-12.107,9.282-14.651c0.756-1.018,1.407-1.276,2.432-0.72l7.328,3.979c0.867,0.471,1.191,1.565,0.72,2.432
		l-8.686,15.996c-2.011,3.703-1.478,5.728,2.62,7.952l7.17,3.894l11.082-20.408c0.471-0.867,1.565-1.191,2.432-0.721l7.486,4.065
		c0.867,0.47,1.191,1.564,0.72,2.432l-11.082,20.408l8.353,4.535c4.097,2.225,6.085,1.569,8.096-2.134l8.686-15.996
		c0.471-0.866,1.565-1.19,2.432-0.72l7.328,3.979C-1276.328,373.017-1276.111,373.747-1276.553,374.935z"/>
</g>
<path display="none" fill="none" d="M1984.564,1046.896c0,0-1.609,3.835,1.183,9.209c0.767,1.477,1.411,2.625,1.948,3.528
	c0.442-0.4,0.858-0.766,1.254-1.108c-1.199-1.519-3.047-4.128-3.47-6.278C1984.842,1049.005,1984.564,1046.896,1984.564,1046.896z"
	/>
<path display="none" fill="none" d="M2012.948,1109.419c0,0-0.384,1.394,0.248,0.851c0.632-0.543,4.632-4.306,5.919-6.074
	c1.286-1.768,2.448-3.038,2.448-3.038s-0.445,0.72,3.441,0.364c3.886-0.356,4.545-0.61,4.545-0.61s-5.513-0.66-6.291-0.783
	c-0.778-0.123-0.778-0.123-0.778-0.123s2.127-4.233,3.357-7.878c-1.063-0.082-2.149-0.181-3.258-0.297
	c-0.087,0.271-0.163,0.544-0.261,0.814C2019.188,1101.278,2012.948,1109.419,2012.948,1109.419z"/>
<path display="none" fill="#2A160C" d="M2192.305,1070.797c-5.643-3.19-7.851-2.944-14.231-6.134s-14.721-13.004-16.93-14.722
	c-2.208-1.717-8.833-0.736-11.287-0.736s-3.19-1.717-3.19-1.717s-0.736-1.472-4.662-7.115c-3.926-5.643-8.588-9.814-11.287-8.588
	s-9.569,2.454-9.569,2.454s-30.424-40.484-31.16-40.239s-14.476,14.967-15.948,16.439c-1.472,1.472-10.305-7.115-10.305-7.115
	s0,0-3.435,3.435c-3.435,3.435-23.064,27.971-27.235,30.915c-4.171,2.944-11.286-4.416-11.286-4.416s0,0-1.227,1.472
	c-0.566,0.679-4.473,5.065-8.687,9.665c0.579,1.065,1.156,2.152,1.723,3.254c0.309-0.537,0.635-1.065,0.952-1.51
	c1.227-1.718,7.606-6.87,7.606-6.87s0.859,0.981,0.859,2.208s-0.245,0.613-2.331,1.963s0.368,1.472,0.245,1.595
	s-1.104,1.227-0.736,2.208s0.859,1.84,0.859,2.331c0,0.491-2.086,0.245-2.086,0.245s-1.595-0.736-2.454-0.368
	c-0.443,0.19-1.078,0.541-1.592,0.838c1.877,3.859,3.539,7.815,4.585,11.558c3.435,12.284,5.781,21.568,3.08,29.984
	c1.109,0.116,2.195,0.215,3.258,0.297c0.354-1.047,0.637-2.049,0.77-2.884c0.595-3.742,0.357-10.999,0.357-10.999
	s5.478,0.275,7.843,0.059c2.366-0.217,4.247-1.068,4.247-1.068s-4.548-0.36-6.673-1.233c-2.125-0.873-3.974-0.607-4.49-0.657
	c-0.516-0.05-1.297-1.143-1.333-1.528c-0.035-0.385,0.472-3.22,2.069-5.32c1.597-2.1,4.534-5.378,4.534-5.378
	s3.619,0.445,5.833,0.437s3.971-0.363,3.971-0.363s-3.663-0.927-5.272-1.75c-1.609-0.823-1.67-1.493-1.67-1.493
	s5.1-5.711,8.059-7.826c2.959-2.115,2.959-2.115,2.959-2.115s4.099,0.11,5.34-0.295c1.241-0.405,1.241-0.405,1.241-0.405
	s-1.547-0.15-2.258-0.473s-0.711-0.323-0.711-0.323s4.106-2.608,7.197-3.279c3.091-0.671,4.172-0.964,4.172-0.964l1.005-0.189
	c0,0-7.07,5.597-8.152,12.392c-0.798,5.013-1.694,19.642-6.009,32.902c23.389-7.122,58.222-24.24,76.03-26.69
	c16.584-2.281,47.843,15.76,54.467,16.496c6.624,0.736,21.041-0.534,21.041-0.534S2197.948,1073.987,2192.305,1070.797z
	 M2060.794,1043.899c-0.507,0.046-6.305-0.005-9.975,1.786c-3.67,1.792-11.308,6.761-11.308,6.761s0.945-2.707,1.895-3.958
	c0.95-1.252,3.549-3.576,3.549-3.576s-4.283,1.605-5.7,4.743c-1.417,3.138-2.473,5.564-2.473,5.564s-5.273,4.753-6.577,6.328
	c-1.304,1.575-2.719,2.869-2.719,2.869s-0.623-4.019,0.86-7.358c1.484-3.338,2.686-5.098,2.686-5.098s-0.004-0.97-1.401,0.516
	c-1.397,1.487-2.869,5.891-3.342,8.167c-0.473,2.275-0.628,6.172-0.628,6.172l-0.378,0.52c-0.271-0.169-1.169-5.328-1.578-6.067
	s-2.014-5.25-2.093-6.117c-0.079-0.866-0.593-2.76-0.593-2.76s11.034-7.9,18.127-9.52c7.093-1.62,12.789-1.753,15.63-1.43
	c2.841,0.322,6.908,1.94,6.908,1.94S2061.301,1043.852,2060.794,1043.899z"/>
<path display="none" fill="#FFFFFF" d="M2016.506,1049.451c0.859-0.368,2.454,0.368,2.454,0.368s2.086,0.245,2.086-0.245
	c0-0.491-0.491-1.349-0.859-2.331s0.613-2.086,0.736-2.208s-2.331-0.245-0.245-1.595s2.331-0.736,2.331-1.963
	s-0.859-2.208-0.859-2.208s-6.379,5.153-7.606,6.87c-0.318,0.445-0.644,0.973-0.952,1.51c0.449,0.873,0.892,1.754,1.323,2.641
	C2015.428,1049.992,2016.063,1049.641,2016.506,1049.451z"/>
<path display="none" fill="#47814D" d="M1970.434,1076.819c0,0-0.06,0.105-0.148,0.382c0.08-0.085,0.156-0.166,0.238-0.253
	C1970.471,1076.872,1970.434,1076.819,1970.434,1076.819z"/>
<path display="none" fill="#47814D" d="M2002.526,1093.292c0.129,0.474,1.054-0.582,2.816-1.811c0.462-0.322,1.232-1.03,2.112-1.893
	c-3.23-0.591-6.466-1.24-9.623-1.914c0.402,0.354,0.844,0.728,1.297,1.077C2000.595,1089.878,2002.398,1092.818,2002.526,1093.292z"
	/>
<path display="none" fill="#47814D" d="M2000.68,1055.83c0.925-0.397,6.265-6.063,11.187-11.436
	c-3.726-6.857-7.488-12.804-8.702-15.797c-1.686-4.159-1.533-10.083-1.369-12.624c0.05-0.775,0.101-1.235,0.101-1.235
	s-2.401,4.49-3.652,6.643c-1.251,2.153-2.087,6.985-2.087,6.985s0,0,0.481-0.335c0.48-0.335,2.95-2.211,2.95-2.211s0,0-1.068,1.359
	c-1.068,1.359-3.112,4.167-3.112,4.167s-0.797,1.529-1.288,3.612c-0.491,2.083-1.173,14.18-1.147,14.468
	c0.026,0.289,0.845-0.077,1.85-0.266c1.005-0.189,6.158-5.319,6.479-5.542c0.32-0.223-0.317,1.194-0.882,1.536
	c-0.565,0.343-3.307,3.894-3.712,4.125c-0.405,0.231-2.952,4.055-3.525,4.302c-0.418,0.179-0.338,0.372-0.255,1.993
	c3.578-2.439,3.58-2.441,3.58-2.441S1998.963,1056.566,2000.68,1055.83z"/>
<path display="none" fill="#47814D" d="M2063.026,1044.082l-1.005,0.189c0,0-1.081,0.293-4.172,0.964
	c-3.091,0.671-7.197,3.279-7.197,3.279s0,0,0.711,0.323s2.258,0.473,2.258,0.473s0,0-1.241,0.405
	c-1.241,0.405-5.34,0.295-5.34,0.295s0,0-2.959,2.115c-2.959,2.115-8.059,7.826-8.059,7.826s0.061,0.67,1.67,1.493
	c1.609,0.823,5.272,1.75,5.272,1.75s-1.757,0.355-3.971,0.363s-5.833-0.437-5.833-0.437s-2.938,3.277-4.534,5.378
	c-1.597,2.1-2.104,4.935-2.069,5.32c0.035,0.385,0.817,1.478,1.333,1.528c0.516,0.05,2.366-0.216,4.49,0.657
	c2.125,0.873,6.673,1.233,6.673,1.233s-1.881,0.852-4.247,1.068c-2.366,0.217-7.843-0.059-7.843-0.059s0.238,7.257-0.357,10.999
	c-0.133,0.835-0.416,1.837-0.77,2.884c5.043,0.39,9.521,0.382,12.941-0.221c3.001-0.529,6.408-1.411,10.087-2.531
	c4.315-13.26,5.211-27.889,6.009-32.902C2055.956,1049.679,2063.026,1044.082,2063.026,1044.082z"/>
<path display="none" fill="#47814D" d="M1980.135,1083.21c-5.359-0.576-9.029-5.445-9.61-6.262
	c-0.082,0.087-0.159,0.168-0.238,0.253c-0.157,0.494-0.405,1.543-0.567,3.533c3.662,1.023,11.623,3.184,21.076,5.373
	C1987.558,1084.544,1984.058,1083.632,1980.135,1083.21z"/>
<path display="none" fill="#47814D" d="M1993.704,1068.575c0,0,0,0,2.336-1.475c2.336-1.475,9.86-7.696,9.86-7.696
	s-0.285,0.608-1.723,2.584c-1.438,1.976-9.691,12.339-9.691,12.339l1.768,11.872c0,0,0.678,0.683,1.577,1.475
	c3.157,0.674,6.393,1.323,9.623,1.914c2.476-2.428,5.845-6.114,5.845-6.114s-0.57,1.217-3.312,4.767
	c-0.405,0.524-0.822,1.055-1.238,1.58c4.746,0.845,9.448,1.552,13.83,2.01c2.701-8.417,0.355-17.7-3.08-29.984
	c-1.047-3.743-2.708-7.699-4.585-11.558c-0.484,0.28-0.861,0.511-0.861,0.511h-2.086c0,0,0.741-1.616,1.624-3.152
	c-0.567-1.102-1.144-2.188-1.723-3.254c-4.922,5.373-10.262,11.039-11.187,11.436c-1.718,0.736-4.171-2.699-4.171-2.699
	s-0.002,0.002-3.58,2.441c0.031,0.606,0.063,1.406,0.069,2.489C1993.021,1062.038,1993.704,1068.575,1993.704,1068.575z"/>
<path display="none" fill="#47814D" d="M2014.052,1050.8c0,0,0.377-0.232,0.861-0.511c-0.431-0.887-0.874-1.768-1.323-2.641
	c-0.883,1.536-1.624,3.152-1.624,3.152H2014.052z"/>
<path display="none" fill="#47814D" d="M1987.695,1059.632c-0.536-0.903-1.18-2.051-1.948-3.528
	c-2.792-5.373-1.183-9.209-1.183-9.209s0.278,2.11,0.916,5.351c0.423,2.15,2.271,4.759,3.47,6.278
	c0.339-0.292,0.664-0.567,0.965-0.809c-0.057-1.439-0.124-3.405-0.149-5.182c-0.046-3.296,0.737-8.705,0.737-8.705
	s-0.382-0.45-1.579-4.223s0.938-9.306,0.938-9.306s0.011,2.911-0.098,5.444c-0.109,2.533,0.982,5.151,0.982,5.151
	s1.468-5.375,3.042-11.439c1.575-6.064,6.913-13.831,6.913-13.831s-0.498,0.143-3.532,2.361c-3.034,2.219-7.014,7.144-11.533,14.545
	s-7.046,18.89-7.046,18.89c-1.63,6.918-1.983,14.102-1.973,19.141C1980.357,1066.697,1984.543,1062.486,1987.695,1059.632z"/>
<path display="none" fill="#47814D" d="M1990.004,1059.791c0,0-0.041-0.846-0.089-2.075c-0.3,0.243-0.626,0.518-0.965,0.809
	C1989.559,1059.296,1990.004,1059.791,1990.004,1059.791z"/>
<path display="none" fill="#47814D" d="M1980.435,1079.979c2.582,1.219,2.565,1.027,3.436,1.238s2.498,1.227,3.596,1.127
	c1.098-0.101,2.809,0.907,2.809,0.907s-0.995-1.559-2.021-2.532s-1.665-2.371-2.681-5.092c-1.016-2.722-0.747-5.366-0.747-5.366
	s1.424,3.46,3,6.713c1.576,3.253,3.721,5.288,3.721,5.288s-0.534-4.901-0.824-8.077c-0.291-3.176-0.972-11.557-0.972-11.557
	s-0.642-0.615-2.057-2.996c-3.152,2.854-7.338,7.064-11.079,10.93c0.008,4.064,0.251,6.735,0.251,6.735
	S1977.853,1078.76,1980.435,1079.979z"/>
<path display="none" fill="#47814D" d="M2039.146,1042.871c-7.093,1.62-18.127,9.52-18.127,9.52s0.514,1.894,0.593,2.76
	c0.079,0.866,1.685,5.378,2.093,6.117s1.307,5.898,1.578,6.067l0.378-0.52c0,0,0.155-3.896,0.628-6.172
	c0.473-2.276,1.944-6.68,3.342-8.167c1.397-1.487,1.401-0.516,1.401-0.516s-1.202,1.76-2.686,5.098
	c-1.484,3.339-0.86,7.358-0.86,7.358s1.415-1.294,2.719-2.869c1.304-1.575,6.577-6.328,6.577-6.328s1.056-2.426,2.473-5.564
	c1.417-3.138,5.7-4.743,5.7-4.743s-2.599,2.324-3.549,3.576c-0.95,1.251-1.895,3.958-1.895,3.958s7.639-4.969,11.308-6.761
	c3.67-1.792,9.468-1.74,9.975-1.786c0.507-0.046,0.89-0.518,0.89-0.518s-4.067-1.617-6.908-1.94
	C2051.935,1041.118,2046.239,1041.251,2039.146,1042.871z"/>
<path display="none" fill="#FFFFFF" d="M2089.868,998.416c0,0-14.967,17.298-14.967,18.034s1.963,0.736,2.454,1.718
	s0.123,1.84-1.595,2.944c-1.718,1.104-7.115,5.766-7.484,6.87c-0.368,1.104-0.368,4.662-1.349,6.011s-1.84,2.453-2.086,3.066
	c-0.245,0.614-1.717,2.454-1.717,4.049s0.859,2.699,0,3.19c-0.859,0.491-1.718,1.84-2.699,2.699s-2.699,1.104-3.435,3.435
	c-0.736,2.331,0,3.926,0,3.926s6.011-4.662,6.502-4.662s1.963,0.368,1.963,1.472s0.491,2.822-0.491,4.417s-2.699,3.435-3.067,4.417
	c-0.368,0.981,0,3.312,0,3.312h1.104c0,0-0.245-0.981,1.595-3.19c1.84-2.208,0.859-3.067,3.312-2.699s4.825,3.558,5.357,1.595
	c0.532-1.963,0.041-3.067,1.145-5.398c1.104-2.331,0.981-3.312,3.68-4.784c2.699-1.472,4.784-3.067,5.889-3.19
	c1.104-0.123,3.558,0.613,2.454-0.613c-1.104-1.227-1.718-2.454-3.312-1.84c-1.595,0.613-2.576,0.613-3.19-1.104
	c-0.613-1.718-1.472-1.963-2.208-3.067c-0.736-1.104-0.981-2.944-0.859-4.907c0.123-1.963,1.84-3.558,2.208-3.926
	c0.368-0.368,4.539-4.784,5.889-6.87c1.349-2.086,1.84-2.086,0.736-3.435c-1.104-1.349-2.454-1.227-1.718-2.331
	s1.227-6.502,1.227-7.483s-0.368-0.491,1.227-2.699c1.595-2.208,3.435-2.576,3.435-5.766
	C2089.868,998.416,2089.868,998.416,2089.868,998.416z"/>
<path display="none" fill="#FFFFFF" d="M2131.334,1036.079c0,0-11.287,6.625-13.617,6.625c-2.331,0-4.171-1.963-5.275-1.963
	c-1.104,0-3.926,1.472-5.643,1.963s-1.718-4.048-3.19,0c-1.472,4.048-1.227,5.275-0.859,5.643c0.368,0.368,1.35,1.227,3.19,0.736
	c1.84-0.491,3.68-1.349,4.417-0.491s1.963,0.859,0.491,2.944c-1.472,2.086-4.048,5.643-4.907,6.993
	c-0.859,1.349-0.245,1.84-2.454,2.576c-2.208,0.736-1.718-0.123-5.03,0.981c-3.312,1.104-4.417,0.368-4.662,1.227
	s-0.123,0.859,1.84,2.086s2.208,0.491,3.435,2.331c1.227,1.84,2.699,2.086,4.294,1.472c1.595-0.613,5.153-3.067,6.502-3.803
	s2.974-0.613,2.652-2.699c-0.322-2.085-0.905-1.963,0-4.048c0.905-2.086,0.783-2.576,2.5-3.067s5.888-2.454,6.87-3.926
	s0.859-2.699,0.859-3.803s0.123-3.19,2.822-3.312s3.68,0.368,4.417,0s-0.368-3.312,0.368-5.398
	C2131.088,1037.06,2131.334,1036.079,2131.334,1036.079z"/>
<path display="none" fill="#FFFFFF" d="M2160.899,1051.782v-0.981c0,0-4.417,1.528-5.03,1.991c-0.613,0.463-0.981,0.463-2.208,0.831
	c-1.227,0.368-3.68,0.859-4.539,1.349c-0.859,0.491-2.576,2.576-3.558,3.435s-2.086,3.19-2.454,3.926
	c-0.368,0.736-0.491,2.699-1.718,3.19s-3.68,2.576-4.417,3.067s-1.349,1.952,2.086,0.914s6.502-5.331,8.342-6.19
	c1.84-0.859,3.435-0.123,4.417-0.981s1.718-3.312,3.067-3.803c1.35-0.491,3.067-0.981,4.294-1.349s3.067-0.368,3.803-0.123
	s0.123-0.859,0-1.349c-0.123-0.491-0.736-1.104-0.613-1.595c0.123-0.491-0.245-1.322-0.245-1.322L2160.899,1051.782z"/>
<path display="none" fill="#FFFFFF" d="M1995.896,1060.334c-0.613-0.332-3.435-0.894-4.539,0c-1.104,0.894-1.718,2.489-3.19,2.98
	s-3.312,2.208-3.312,2.208s2.944-0.613,3.558-0.859s1.595-2.235,2.944-1.976c1.349,0.259,0.368,0.6,2.085,0
	c1.718-0.6,2.454-0.073,2.454-1.213C1995.896,1060.334,1995.896,1060.334,1995.896,1060.334z"/>
<path display="none" fill="#623D18" d="M1969.393,1086.107c0,0,48.463,22.476,75.452,16.587c26.99-5.889,67.228-25.027,84.894-23.8
	s38.869,10.261,46.864,11.54c10.796,1.727,23.8-5.793,23.8-5.793s-33.246,60.745-111.638,64.426
	c-65.015,3.052-77.656-10.55-93.972-22.328C1978.475,1114.962,1969.393,1086.107,1969.393,1086.107z"/>
<text transform="matrix(1 0 0 1 1969.5236 1187.5079)" display="none" fill="#623D18" font-family="'Insaniburger-with-Cheese'" font-size="30.3873">ELGONTIP COFFEE</text>
<path display="none" fill="#47814D" d="M2025.837,1092.128c-1.23,3.645-3.357,7.878-3.357,7.878s0,0,0.778,0.123
	c0.778,0.123,6.291,0.783,6.291,0.783s-0.658,0.254-4.545,0.61c-3.886,0.356-3.441-0.364-3.441-0.364s-1.162,1.271-2.448,3.038
	c-1.287,1.768-5.287,5.531-5.919,6.074c-0.632,0.543-0.248-0.851-0.248-0.851s6.241-8.141,9.37-16.774
	c0.098-0.27,0.174-0.542,0.261-0.814c-4.381-0.458-9.084-1.165-13.83-2.01c-2.408,3.034-4.811,5.864-4.811,5.864s0,0,0.51,0.924
	c0.51,0.924,2.306,6.583,2.727,8.388s-1.116,4.566-1.116,4.566s-1.294-9.49-2.497-12.388c-1.202-2.899-3.686-4.903-8.17-8.278
	c-1.477-1.112-3.008-2.024-4.599-2.791c-9.453-2.188-17.414-4.35-21.076-5.373c-0.032,0.397-0.062,0.826-0.086,1.302
	c-0.213,4.193-0.251,7.496,1.154,12.608c1.405,5.112,6.945,15.378,8.344,16.705c1.399,1.328,4.087,3.702,4.251,4.561
	c0.164,0.859,1.783-0.066,1.783-0.066s0.109,2.125,8.908,2.387c8.799,0.262,11.105-2.472,11.105-2.472s2.697,2.471,11.665,2.718
	c8.968,0.247,16.248-1.196,25.972-15.964c2.551-3.875,4.515-8.42,6.05-13.136c-3.679,1.12-7.085,2.002-10.087,2.531
	C2035.358,1092.51,2030.88,1092.518,2025.837,1092.128z"/>
<path fill="#2A160C" d="M166.935,350.95c11.09-4.033,34.784-57.095,39.321-60.12c4.537-3.025-2.016-7.571,11.09-12.613
	c13.107-5.041,26.214-42.345,33.271-47.386c7.058-5.041-15.123,4.033,29.238,9.074c0,0,6.553-1.512,13.107-7.058
	s57.973-72.088,65.03-79.145c7.058-7.058,7.058-7.058,7.058-7.058s8.066,6.553,18.148,13.107
	c10.082,6.553,7.058,10.082,10.082,6.553s41.841-44.866,41.841-44.866s33.775,38.817,51.923,65.03
	c18.148,26.214,32.767,45.874,34.28,46.126c1.512,0.252,8.57-2.773,14.619-7.31s8.57-12.099,12.099-4.537
	c3.529,7.562,33.271,37.808,36.8,39.825c3.529,2.016,1.512,4.033,12.099,5.041c10.586,1.008,11.595-1.512,22.685,3.529
	c11.09,5.041,39.321,35.792,56.46,44.362s39.295,19.66,39.295,19.66s-63.308-1.362-107.165,4.688
	c-43.858,6.049-59.422-19.307-106.176-48.041s-69.44-39.321-98.174-27.222s-107.376,36.296-148.209,46.882
	C214.825,320.059,166.935,350.95,166.935,350.95z"/>
<path fill="#FFFFFF" stroke="#FFFFFF" stroke-width="1.9916" stroke-miterlimit="10" d="M286.821,232.821
	c1.71-0.733,4.887,0.733,4.887,0.733s4.154,0.489,4.154-0.489c0-0.977-0.977-2.688-1.71-4.642c-0.733-1.955,1.222-4.154,1.466-4.398
	c0.244-0.244-4.642-0.489-0.489-3.176s4.642-1.466,4.642-3.909c0-2.443-1.71-4.398-1.71-4.398s-12.705,10.262-15.148,13.682
	c-0.633,0.886-1.282,1.937-1.897,3.007c0.895,1.738,1.776,3.493,2.635,5.259C284.674,233.898,285.94,233.199,286.821,232.821z"/>
<path fill="#FFFFFF" stroke="#FFFFFF" stroke-width="1.9916" stroke-miterlimit="10" d="M432.929,131.18
	c0,0-29.808,34.45-29.808,35.916s3.909,1.466,4.887,3.421c0.977,1.955,0.244,3.665-3.176,5.864s-14.171,11.483-14.904,13.682
	c-0.733,2.199-0.733,9.284-2.688,11.972c-1.955,2.688-3.665,4.884-4.154,6.107c-0.489,1.223-3.421,4.888-3.421,8.064
	c0,3.176,1.71,5.375,0,6.353s-3.421,3.665-5.375,5.375s-5.375,2.199-6.841,6.841s0,7.819,0,7.819s11.972-9.284,12.949-9.284
	c0.977,0,3.909,0.733,3.909,2.932s0.977,5.62-0.977,8.796c-1.955,3.176-5.375,6.841-6.108,8.796c-0.733,1.955,0,6.597,0,6.597h2.199
	c0,0-0.489-1.955,3.176-6.353c3.665-4.398,1.71-6.108,6.597-5.375s9.61,7.086,10.669,3.176s0.081-6.108,2.28-10.75
	c2.199-4.642,1.955-6.597,7.33-9.529c5.375-2.932,9.529-6.108,11.728-6.353c2.199-0.244,7.086,1.222,4.887-1.222
	c-2.199-2.443-3.421-4.887-6.597-3.665c-3.176,1.222-5.131,1.222-6.353-2.199c-1.222-3.421-2.932-3.909-4.398-6.108
	c-1.466-2.199-1.955-5.864-1.71-9.773c0.244-3.909,3.665-7.086,4.398-7.819c0.733-0.733,9.04-9.529,11.728-13.682
	c2.688-4.154,3.665-4.154,1.466-6.841c-2.199-2.688-4.887-2.443-3.421-4.642c1.466-2.199,2.443-12.949,2.443-14.904
	c0-1.955-0.733-0.977,2.443-5.375c3.176-4.398,6.841-5.131,6.841-11.483S432.929,131.18,432.929,131.18z"/>
<path fill="#FFFFFF" stroke="#FFFFFF" stroke-width="1.377" stroke-miterlimit="10" d="M293.175,244.804
	c0,0-15.542,9.122-18.751,9.122s-5.744-2.703-7.264-2.703c-1.52,0-5.406,2.027-7.771,2.703c-2.365,0.676-2.365-5.575-4.392,0
	s-1.689,7.264-1.183,7.771c0.507,0.507,1.858,1.689,4.392,1.014c2.534-0.676,5.068-1.858,6.082-0.676s2.703,1.183,0.676,4.054
	c-2.027,2.872-5.575,7.771-6.757,9.629c-1.183,1.858-0.338,2.534-3.379,3.548c-3.041,1.014-2.365-0.169-6.926,1.351
	c-4.561,1.52-6.082,0.507-6.419,1.689c-0.338,1.183-0.169,1.183,2.534,2.872s3.041,0.676,4.73,3.21
	c1.689,2.534,3.717,2.872,5.913,2.027c2.196-0.845,7.095-4.223,8.953-5.237c1.858-1.014,4.095-0.845,3.652-3.716
	c-0.443-2.872-1.247-2.703,0-5.575c1.247-2.872,1.078-3.548,3.443-4.223c2.365-0.676,8.109-3.379,9.46-5.406
	c1.351-2.027,1.183-3.717,1.183-5.237s0.169-4.392,3.885-4.561c3.716-0.169,5.068,0.507,6.082,0
	c1.014-0.507-0.507-4.561,0.507-7.433S293.175,244.804,293.175,244.804z"/>
<path fill="#FFFFFF" stroke="#FFFFFF" stroke-width="1.9916" stroke-miterlimit="10" d="M544.045,243.398v-1.955
	c0,0-8.796,3.043-10.017,3.965c-1.222,0.922-1.955,0.922-4.398,1.655s-7.33,1.71-9.04,2.688c-1.71,0.977-5.131,5.131-7.086,6.841
	c-1.955,1.71-4.154,6.353-4.887,7.819c-0.733,1.466-0.977,5.375-3.421,6.353c-2.443,0.977-7.33,5.131-8.796,6.108
	c-1.466,0.977-2.688,3.887,4.154,1.821s12.949-10.617,16.614-12.327s6.841-0.244,8.796-1.955s3.421-6.597,6.108-7.574
	c2.688-0.977,6.108-1.955,8.552-2.688c2.443-0.733,6.108-0.733,7.574-0.244c1.466,0.489,0.244-1.71,0-2.688
	s-1.466-2.199-1.222-3.176c0.244-0.977-0.489-2.632-0.489-2.632L544.045,243.398z"/>
<g>
	<path fill="#376B09" d="M173.983,401.898c-2.357,0.337-5.791,0.876-13.063,0.876c-8.687,0-16.363-2.223-16.363-14.478V365.94
		c0-12.255,7.744-14.41,16.43-14.41c7.272,0,10.639,0.539,12.996,0.876c0.942,0.135,1.347,0.471,1.347,1.347v6.262
		c0,0.741-0.606,1.347-1.347,1.347h-13.669c-3.165,0-4.31,1.078-4.31,4.579v6.128h17.44c0.74,0,1.347,0.606,1.347,1.347v6.397
		c0,0.74-0.606,1.347-1.347,1.347h-17.44v7.138c0,3.501,1.145,4.578,4.31,4.578h13.669c0.741,0,1.347,0.606,1.347,1.348v6.262
		C175.33,401.36,174.926,401.763,173.983,401.898z"/>
	<path fill="#376B09" d="M211.486,401.898c-2.222,0.472-7.407,0.876-10.976,0.876c-8.687,0-16.431-2.223-16.431-14.478v-34.813
		c0-0.741,0.606-1.347,1.347-1.347h8.821c0.741,0,1.347,0.605,1.347,1.347v34.813c0,3.501,1.145,4.578,4.31,4.578h11.582
		c0.741,0,1.347,0.606,1.347,1.348v6.262C212.833,401.36,212.429,401.696,211.486,401.898z"/>
	<path fill="#376B09" d="M252.626,362.102c-0.067,0-0.135,0-0.202,0c-3.232-0.135-8.282-0.539-14.006-0.539
		c-5.455,0-8.821,2.626-8.821,11.447v8.417c0,9.293,4.242,11.447,7.542,11.447c1.885,0,3.569-0.066,5.185-0.201v-15.488
		c0-0.74,0.539-1.347,1.28-1.347h8.619c0.741,0,1.347,0.606,1.347,1.347v22.626c0,0.942-0.337,1.347-1.347,1.549
		c-3.636,0.74-8.35,1.414-15.083,1.414c-7.677,0-19.191-4.377-19.191-21.414v-8.35c0-17.171,10.707-21.48,20.471-21.48
		c6.733,0,11.582,1.011,14.073,1.549c0.673,0.135,1.145,0.404,1.145,1.01v7.138C253.636,361.967,253.232,362.102,252.626,362.102z"
		/>
	<path fill="#376B09" d="M281.779,402.774c-11.11,0-19.932-5.993-19.932-21.615v-8.014c0-15.622,8.821-21.615,19.932-21.615
		c11.111,0,19.932,5.993,19.932,21.615v8.014C301.711,396.781,292.89,402.774,281.779,402.774z M290.129,373.145
		c0-8.08-2.694-11.515-8.35-11.515s-8.282,3.435-8.282,11.515v8.014c0,8.08,2.626,11.515,8.282,11.515s8.35-3.435,8.35-11.515
		V373.145z"/>
	<path fill="#376B09" d="M347.294,402.168h-6.599c-1.414,0-2.424-0.27-3.501-2.088l-15.353-26.53
		c-0.269-0.404-0.404-0.539-0.606-0.539s-0.336,0.135-0.336,0.539v27.271c0,0.74-0.606,1.347-1.347,1.347h-7.946
		c-0.741,0-1.347-0.606-1.347-1.347v-46.126c0-1.414,1.145-2.559,2.559-2.559h6.801c1.347,0,2.021,0.673,2.828,2.087l15.959,27.743
		c0.27,0.404,0.337,0.539,0.539,0.539c0.135,0,0.337-0.135,0.337-0.606v-28.483c0-0.741,0.606-1.279,1.347-1.279h7.946
		c0.741,0,1.347,0.538,1.347,1.279v46.193C349.92,401.023,348.708,402.168,347.294,402.168z"/>
	<path fill="#376B09" d="M391.328,361.631h-10.909v39.19c0,0.74-0.606,1.347-1.347,1.347h-8.821c-0.741,0-1.347-0.606-1.347-1.347
		v-39.19h-10.976c-0.741,0-1.347-0.538-1.347-1.279v-6.936c0-0.741,0.606-1.279,1.347-1.279h33.399c0.741,0,1.414,0.538,1.414,1.279
		v6.936C392.742,361.092,392.068,361.631,391.328,361.631z"/>
	<path fill="#376B09" d="M409.64,402.168h-9.023c-0.741,0-1.212-0.606-1.212-1.347v-47.405c0-0.741,0.472-1.279,1.212-1.279h9.023
		c0.741,0,1.279,0.538,1.279,1.279v47.405C410.919,401.561,410.38,402.168,409.64,402.168z"/>
	<path fill="#376B09" d="M437.448,384.66c-1.616,0-3.771-0.135-5.454-0.202v16.363c0,0.74-0.606,1.347-1.348,1.347h-8.686
		c-0.741,0-1.348-0.539-1.348-1.279v-45.251c0-2.289,0.943-2.896,3.03-3.231c3.435-0.539,8.821-0.876,13.67-0.876
		c10.168,0,20.201,3.569,20.201,16.229v0.606C457.515,380.957,447.481,384.66,437.448,384.66z M446.067,367.759
		c0-4.781-2.963-6.666-8.619-6.666c-0.943,0-4.646,0.134-5.454,0.201v13.737c0.74,0.067,4.713,0.135,5.454,0.135
		c5.993,0,8.619-2.223,8.619-6.801V367.759z"/>
</g>
<g>
	<path fill="#623D18" d="M503.245,401.631c-1.414,0.472-5.319,1.146-10.033,1.146c-10.234,0-19.932-5.388-19.932-21.414v-8.484
		c0-16.025,9.697-21.346,19.932-21.346c4.714,0,8.619,0.674,10.033,1.145c0.943,0.27,1.481,0.539,1.481,1.481v6.532
		c0,0.808-0.403,1.347-1.279,1.347c-0.067,0-0.135,0-0.202,0c-2.559-0.202-6.262-0.539-9.966-0.539c-4.646,0-8.35,2.425-8.35,11.38
		v8.484c0,8.956,3.704,11.381,8.35,11.381c3.704,0,7.407-0.337,9.966-0.539c0.067,0,0.135,0,0.202,0
		c0.876,0,1.279,0.539,1.279,1.347v6.531C504.727,401.025,504.188,401.362,503.245,401.631z"/>
	<path fill="#623D18" d="M531.255,402.776c-11.111,0-19.933-5.993-19.933-21.615v-8.014c0-15.622,8.821-21.615,19.933-21.615
		c11.11,0,19.932,5.993,19.932,21.615v8.014C551.187,396.783,542.365,402.776,531.255,402.776z M539.604,373.147
		c0-8.08-2.693-11.515-8.35-11.515s-8.283,3.435-8.283,11.515v8.014c0,8.08,2.627,11.515,8.283,11.515s8.35-3.435,8.35-11.515
		V373.147z"/>
	<path fill="#623D18" d="M588.958,361.43h-13.669c-3.165,0-4.31,1.078-4.31,4.579v6.061h17.44c0.74,0,1.347,0.606,1.347,1.347v6.397
		c0,0.74-0.606,1.347-1.347,1.347h-17.44v19.662c0,0.74-0.606,1.347-1.347,1.347h-8.754c-0.741,0-1.347-0.606-1.347-1.347v-34.813
		c0-12.255,7.743-14.41,16.43-14.41c7.272,0,10.64,0.539,12.996,0.876c0.943,0.134,1.347,0.471,1.347,1.347v6.262
		C590.305,360.825,589.699,361.43,588.958,361.43z"/>
	<path fill="#623D18" d="M628.347,361.43h-13.669c-3.165,0-4.31,1.078-4.31,4.579v6.061h17.44c0.74,0,1.347,0.606,1.347,1.347v6.397
		c0,0.74-0.606,1.347-1.347,1.347h-17.44v19.662c0,0.74-0.606,1.347-1.347,1.347h-8.754c-0.741,0-1.347-0.606-1.347-1.347v-34.813
		c0-12.255,7.743-14.41,16.43-14.41c7.272,0,10.64,0.539,12.996,0.876c0.943,0.134,1.347,0.471,1.347,1.347v6.262
		C629.693,360.825,629.088,361.43,628.347,361.43z"/>
	<path fill="#623D18" d="M667.735,401.9c-2.356,0.337-5.791,0.876-13.063,0.876c-8.686,0-16.362-2.223-16.362-14.478v-22.356
		c0-12.255,7.743-14.41,16.43-14.41c7.272,0,10.64,0.539,12.996,0.876c0.943,0.135,1.347,0.471,1.347,1.347v6.262
		c0,0.741-0.605,1.347-1.347,1.347h-13.669c-3.165,0-4.31,1.078-4.31,4.579v6.128h17.44c0.74,0,1.347,0.606,1.347,1.347v6.397
		c0,0.74-0.606,1.347-1.347,1.347h-17.44v7.138c0,3.501,1.145,4.578,4.31,4.578h13.669c0.741,0,1.347,0.606,1.347,1.348v6.262
		C669.082,401.362,668.679,401.765,667.735,401.9z"/>
	<path fill="#623D18" d="M707.057,401.9c-2.356,0.337-5.791,0.876-13.063,0.876c-8.686,0-16.362-2.223-16.362-14.478v-22.356
		c0-12.255,7.743-14.41,16.43-14.41c7.272,0,10.64,0.539,12.996,0.876c0.943,0.135,1.347,0.471,1.347,1.347v6.262
		c0,0.741-0.605,1.347-1.347,1.347h-13.669c-3.165,0-4.31,1.078-4.31,4.579v6.128h17.44c0.74,0,1.347,0.606,1.347,1.347v6.397
		c0,0.74-0.606,1.347-1.347,1.347h-17.44v7.138c0,3.501,1.145,4.578,4.31,4.578h13.669c0.741,0,1.347,0.606,1.347,1.348v6.262
		C708.403,401.362,708,401.765,707.057,401.9z"/>
</g>
<g>
	<path fill="#623D18" stroke="#FFFFFF" stroke-width="1.8386" stroke-miterlimit="10" d="M327.874,258.123
		c0,0,21.168,36.361,29.365,41.539s13.654,21.356,33.125,25.344c19.471,3.988,19.471,3.988,19.471,3.988s-47.386,24.887-78.602-8.76
		c-13.41-14.454-14.687-31.741-14.186-38.947C319.462,246.567,327.874,258.123,327.874,258.123z"/>
	<path fill="#623D18" stroke="#FFFFFF" stroke-width="1.8386" stroke-miterlimit="10" d="M330.726,248.667
		c0,0,9.223,3.055,15.891,8.127c6.669,5.072,20.907,33.805,27.351,42.105c6.444,8.3,23.687,22.226,29.974,23.321
		c6.287,1.096,11.642-12.794,8.171-25.982s-22.871-46.573-49.548-51.062C335.889,240.688,330.726,248.667,330.726,248.667z"/>
</g>
<path fill="#A8CE72" stroke="#FFFFFF" stroke-width="1.8386" stroke-miterlimit="10" d="M460.365,176.69
	c0,0-10.277,19.475-21.062,30.343c-10.785,10.868-28.621,14.844-27.916,33.538c0.705,18.693,13.952,43.887,13.952,43.887
	s2.293-21.926,19.309-33.029c17.016-11.103,26.595-19.907,28.773-30.266c2.179-10.36,0.035-18.538-3.862-29.402
	C465.663,180.895,460.365,176.69,460.365,176.69z"/>
<path fill="#234718" stroke="#FFFFFF" stroke-width="1.8386" stroke-miterlimit="10" d="M502.316,208.693
	c0,0-14.618,20.074-26.951,24.468s-26.021,17.987-33.779,32.83c-7.758,14.843-14.01,29.808-16.059,43.26s-2.049,13.451-2.049,13.451
	s25.623-22.429,32.53-26.386c6.907-3.956,28.021-8.016,35.881-38.044C499.75,228.244,502.316,208.693,502.316,208.693z"/>
<path fill="#0A1A08" stroke="#FFFFFF" stroke-width="1.8386" stroke-miterlimit="10" d="M401.65,235.432
	c0,0,4.329,27.182,11.341,37.929c7.012,10.747,12.818,23.559,7.603,41.007s-4.338,21.496-4.338,21.496s-13.402-32.811-17.776-37.665
	c-4.374-4.855-6.206-14.513-4.145-27.988C396.397,256.736,401.65,235.432,401.65,235.432z"/>
<path display="none" fill="#2A160C" d="M-677.553,343.267c7.02-2.553,22.017-36.14,24.889-38.055
	c2.872-1.915-1.276-4.793,7.02-7.983c8.296-3.191,16.593-26.804,21.06-29.995c4.467-3.191-9.573,2.553,18.507,5.744
	c0,0,4.148-0.957,8.296-4.467c4.148-3.51,36.696-45.63,41.163-50.098c4.467-4.467,4.467-4.467,4.467-4.467s5.105,4.148,11.487,8.296
	c6.382,4.148,4.467,6.382,6.382,4.148c1.915-2.234,26.485-28.399,26.485-28.399s21.379,24.57,32.867,41.163
	c11.487,16.593,20.741,29.037,21.698,29.197s5.425-1.755,9.254-4.627c3.829-2.872,5.425-7.658,7.658-2.872
	s21.06,23.932,23.294,25.208c2.234,1.276,0.957,2.553,7.658,3.191c6.701,0.638,7.339-0.957,14.359,2.234
	c7.02,3.191,24.889,22.656,35.738,28.08c10.849,5.425,24.873,12.445,24.873,12.445s-40.073-0.862-67.834,2.967
	s-37.613-12.221-67.207-30.409s-43.954-24.889-62.142-17.231c-18.188,7.658-67.967,22.975-93.813,29.676
	C-647.239,323.713-677.553,343.267-677.553,343.267z"/>
<path display="none" fill="#FFFFFF" stroke="#FFFFFF" stroke-width="1.2606" stroke-miterlimit="10" d="M-601.667,268.493
	c1.083-0.464,3.093,0.464,3.093,0.464s2.629,0.309,2.629-0.309c0-0.619-0.619-1.701-1.083-2.938
	c-0.464-1.237,0.773-2.629,0.928-2.784c0.155-0.155-2.938-0.309-0.309-2.011c2.629-1.701,2.938-0.928,2.938-2.474
	s-1.083-2.784-1.083-2.784s-8.042,6.496-9.589,8.661c-0.401,0.561-0.811,1.226-1.201,1.903c0.567,1.1,1.124,2.211,1.668,3.329
	C-603.026,269.175-602.225,268.733-601.667,268.493z"/>
<path display="none" fill="#FFFFFF" stroke="#FFFFFF" stroke-width="1.2606" stroke-miterlimit="10" d="M-509.183,204.157
	c0,0-18.868,21.806-18.868,22.734c0,0.928,2.474,0.928,3.093,2.165c0.619,1.237,0.155,2.32-2.011,3.712
	c-2.165,1.392-8.97,7.269-9.434,8.661c-0.464,1.392-0.464,5.877-1.701,7.578c-1.237,1.701-2.32,3.092-2.629,3.866
	c-0.309,0.774-2.165,3.094-2.165,5.104c0,2.011,1.083,3.402,0,4.021s-2.165,2.32-3.402,3.402s-3.402,1.392-4.33,4.33
	c-0.928,2.938,0,4.949,0,4.949s7.578-5.877,8.197-5.877c0.619,0,2.474,0.464,2.474,1.856c0,1.392,0.619,3.557-0.619,5.568
	s-3.402,4.33-3.866,5.568c-0.464,1.237,0,4.176,0,4.176h1.392c0,0-0.309-1.237,2.01-4.021s1.083-3.866,4.176-3.402
	c3.093,0.464,6.083,4.485,6.753,2.011c0.67-2.474,0.052-3.866,1.443-6.805s1.237-4.176,4.64-6.032
	c3.402-1.856,6.032-3.866,7.423-4.021c1.392-0.155,4.485,0.773,3.093-0.773c-1.392-1.547-2.165-3.093-4.176-2.32
	c-2.01,0.773-3.248,0.773-4.021-1.392c-0.773-2.165-1.856-2.474-2.784-3.866s-1.237-3.712-1.083-6.186
	c0.155-2.474,2.32-4.485,2.784-4.949c0.464-0.464,5.722-6.032,7.423-8.661c1.701-2.629,2.32-2.629,0.928-4.33
	c-1.392-1.701-3.093-1.547-2.165-2.938c0.928-1.392,1.547-8.197,1.547-9.434s-0.464-0.619,1.547-3.402
	c2.01-2.784,4.33-3.248,4.33-7.269C-509.183,204.157-509.183,204.157-509.183,204.157z"/>
<path display="none" fill="#FFFFFF" stroke="#FFFFFF" stroke-width="0.8716" stroke-miterlimit="10" d="M-597.645,276.078
	c0,0-9.838,5.774-11.869,5.774s-3.636-1.711-4.598-1.711c-0.962,0-3.422,1.283-4.919,1.711s-1.497-3.529-2.78,0
	c-1.283,3.529-1.069,4.598-0.748,4.919c0.321,0.321,1.176,1.069,2.78,0.642c1.604-0.428,3.208-1.176,3.85-0.428
	c0.642,0.749,1.711,0.749,0.428,2.566c-1.283,1.818-3.529,4.919-4.277,6.095c-0.748,1.176-0.214,1.604-2.139,2.246
	c-1.925,0.642-1.497-0.107-4.384,0.855s-3.849,0.321-4.063,1.069s-0.107,0.749,1.604,1.818c1.711,1.069,1.925,0.428,2.994,2.032
	c1.069,1.604,2.352,1.818,3.743,1.283c1.39-0.535,4.491-2.673,5.667-3.315c1.176-0.642,2.592-0.535,2.312-2.352
	c-0.28-1.818-0.789-1.711,0-3.529c0.789-1.818,0.682-2.246,2.179-2.673c1.497-0.428,5.133-2.139,5.988-3.422
	c0.855-1.283,0.749-2.352,0.749-3.315s0.107-2.78,2.459-2.887c2.352-0.107,3.208,0.321,3.849,0c0.642-0.321-0.321-2.887,0.321-4.705
	C-597.859,276.934-597.645,276.078-597.645,276.078z"/>
<path display="none" fill="#FFFFFF" stroke="#FFFFFF" stroke-width="1.2606" stroke-miterlimit="10" d="M-438.849,275.189v-1.237
	c0,0-5.568,1.926-6.341,2.51c-0.773,0.584-1.237,0.584-2.784,1.047s-4.64,1.083-5.722,1.701s-3.248,3.248-4.485,4.33
	s-2.629,4.021-3.093,4.949c-0.464,0.928-0.619,3.402-2.165,4.021c-1.547,0.619-4.64,3.248-5.568,3.866
	c-0.928,0.619-1.701,2.46,2.629,1.153c4.33-1.307,8.197-6.72,10.517-7.803c2.32-1.083,4.33-0.155,5.568-1.237
	c1.237-1.083,2.165-4.176,3.866-4.794s3.866-1.237,5.413-1.701c1.547-0.464,3.866-0.464,4.794-0.155
	c0.928,0.309,0.155-1.083,0-1.701s-0.928-1.392-0.773-2.011c0.155-0.619-0.309-1.666-0.309-1.666L-438.849,275.189z"/>
<path display="none" fill="none" stroke="#757575" stroke-width="10.8813" stroke-miterlimit="10" d="M-1636.298,302.843
	c-8.463-119.081,84.72-200.579,180.907-207.222c120.143-8.297,211.333,76.529,218.964,189.152"/>
<path display="none" fill="none" stroke="#623D18" stroke-width="12.3228" stroke-miterlimit="10" d="M-1620.518,362.388"/>
<path display="none" fill="none" stroke="#623D18" stroke-width="12.6949" stroke-miterlimit="10" d="M-1250.497,368.59
	c-33.249,85.237-90.645,131.629-187.926,131.629c-84.604,0-157.019-52.193-186.802-126.137"/>
<g display="none">
	<path display="inline" fill="#623D18" d="M-475.389,338.831c0,0-22.824,15.503-25.838,21.101s-13.35,9.905-15.072,22.824
		c-1.723,12.919-1.723,12.919-1.723,12.919s-18.438-29.867,2.153-51.82c8.846-9.431,20.096-11.053,24.833-11.053
		C-468.212,332.802-475.389,338.831-475.389,338.831z"/>
	<path display="inline" fill="#623D18" d="M-469.073,340.267c0,0-1.579,6.172-4.593,10.766s-21.164,15.216-26.3,19.809
		s-13.462,16.508-13.893,20.671c-0.431,4.163,8.9,7.034,17.369,4.163c8.469-2.871,29.427-17.082,31.15-34.738
		C-463.618,343.281-469.073,340.267-469.073,340.267z"/>
</g>
<g display="none">
	<path display="inline" fill="#623D18" d="M-558.592,349.03c0,0,4.573,15.386,7.145,18.044c2.573,2.658,3.139,9.147,9.998,12.379
		c6.859,3.232,6.859,3.232,6.859,3.232s-19.808,4.959-28.35-10.326c-3.67-6.566-2.586-13.09-1.752-15.716
		C-560.67,343.989-558.592,349.03-558.592,349.03z"/>
	<path display="inline" fill="#623D18" d="M-556.683,345.782c0,0,3.144,1.963,5.159,4.444s4.706,14.415,6.348,18.072
		c1.642,3.657,6.78,10.373,9.012,11.345s5.468-3.695,5.369-8.896c-0.099-5.201-4.285-19.325-13.77-23.392
		S-556.683,345.782-556.683,345.782z"/>
</g>
<g display="none">
	<path display="inline" d="M-607.332,226.907c-1.404,2.056-3.414,5.086-8.548,10.697c-6.133,6.703-13.269,11.057-22.725,2.403
		l-17.249-15.786c-9.456-8.653-5.651-16.15,0.482-22.852c5.135-5.611,7.928-7.829,9.852-9.41c0.77-0.632,1.314-0.706,1.99-0.088
		l4.832,4.422c0.572,0.523,0.611,1.419,0.088,1.99l-9.652,10.547c-2.235,2.442-2.212,4.086,0.49,6.559l4.728,4.327l12.314-13.457
		c0.523-0.572,1.419-0.611,1.99-0.088l4.936,4.517c0.571,0.523,0.611,1.418,0.088,1.99l-12.314,13.457l5.507,5.04
		c2.702,2.473,4.341,2.35,6.576-0.092l9.652-10.547c0.523-0.572,1.418-0.611,1.99-0.088l4.832,4.422
		C-606.796,225.488-606.77,226.084-607.332,226.907z"/>
	<path display="inline" d="M-577.58,206.675c-1.678,1.681-5.991,4.995-9.119,7.032c-7.611,4.958-15.666,7.431-22.661-3.308
		l-19.872-30.506c-0.423-0.649-0.237-1.526,0.412-1.949l7.729-5.035c0.649-0.423,1.526-0.238,1.949,0.412l19.872,30.506
		c1.999,3.068,3.617,3.359,6.39,1.552l10.149-6.611c0.649-0.423,1.526-0.238,1.949,0.411l3.574,5.488
		C-576.708,205.434-576.87,205.96-577.58,206.675z"/>
	<path display="inline" d="M-552.753,154.093c-0.067,0.021-0.134,0.043-0.201,0.064c-3.265,0.889-8.427,2.085-14.132,3.897
		c-5.437,1.727-7.962,5.41-5.169,14.204l2.665,8.39c2.942,9.263,7.853,10.068,11.142,9.023c1.88-0.597,3.537-1.197,5.105-1.842
		l-4.903-15.438c-0.235-0.738,0.11-1.513,0.849-1.748l8.592-2.729c0.739-0.234,1.535,0.178,1.769,0.916l7.162,22.554
		c0.299,0.939,0.091,1.449-0.852,1.97c-3.39,1.889-7.875,4.053-14.588,6.184c-7.652,2.43-20.516,1.712-25.909-15.27l-2.644-8.323
		c-5.436-17.116,3.873-24.802,13.605-27.893c6.712-2.131,11.865-2.66,14.52-2.911c0.714-0.079,1.269,0.04,1.46,0.645l2.26,7.115
		C-551.789,153.639-552.149,153.901-552.753,154.093z"/>
	<path display="inline" d="M-513.6,193.284c-11.619-0.189-20.742-6.606-20.477-22.943l0.136-8.38
		c0.266-16.337,9.592-22.455,21.211-22.266c11.619,0.189,20.742,6.606,20.477,22.943l-0.136,8.38
		C-492.653,187.355-501.98,193.473-513.6,193.284z M-504.364,162.441c0.137-8.45-2.621-12.087-8.537-12.184
		c-5.915-0.096-8.72,3.451-8.857,11.901l-0.136,8.38c-0.138,8.451,2.55,12.086,8.466,12.183c5.915,0.096,8.79-3.449,8.928-11.9
		L-504.364,162.441z"/>
	<path display="inline" d="M-451.25,206.088l-6.526-2.245c-1.398-0.481-2.306-1.091-2.753-3.255l-6.158-31.458
		c-0.129-0.491-0.216-0.67-0.416-0.739c-0.2-0.069-0.379,0.019-0.516,0.418l-9.276,26.969c-0.252,0.732-1.058,1.125-1.79,0.874
		l-7.857-2.703c-0.732-0.252-1.126-1.058-0.874-1.79l15.689-45.614c0.481-1.398,2.002-2.141,3.401-1.66l6.726,2.313
		c1.332,0.458,1.769,1.353,2.086,3.026l6.346,32.863c0.129,0.491,0.149,0.647,0.35,0.716c0.133,0.046,0.378-0.019,0.539-0.485
		l9.688-28.167c0.252-0.733,1.035-1.059,1.767-0.807l7.857,2.702c0.732,0.252,1.148,0.991,0.896,1.724l-15.711,45.68
		C-448.263,205.849-449.852,206.569-451.25,206.088z"/>
	<path display="inline" d="M-391.539,196.188l-9.181-6.773l-24.333,32.983c-0.46,0.623-1.346,0.757-1.97,0.297l-7.424-5.477
		c-0.623-0.459-0.757-1.346-0.297-1.969l24.333-32.983l-9.237-6.814c-0.624-0.46-0.799-1.29-0.339-1.913l4.306-5.837
		c0.46-0.623,1.304-0.7,1.928-0.24l28.109,20.737c0.624,0.46,0.855,1.331,0.396,1.955l-4.307,5.837
		C-390.015,196.613-390.916,196.648-391.539,196.188z"/>
	<path display="inline" d="M-406.168,242.997l-6.283-7.04c-0.516-0.578-0.371-1.368,0.207-1.883l36.985-33.011
		c0.578-0.516,1.327-0.523,1.842,0.055l6.283,7.04c0.516,0.578,0.471,1.373-0.107,1.889l-36.985,33.011
		C-404.805,243.573-405.653,243.575-406.168,242.997z"/>
	<path display="inline" d="M-375.471,255.58c-0.821-1.478-1.792-3.516-2.586-5.088l-14.958,8.313
		c-0.677,0.376-1.539,0.13-1.915-0.547l-4.413-7.94c-0.376-0.677-0.192-1.505,0.485-1.881l41.364-22.989
		c2.093-1.163,3.125-0.609,4.494,1.128c2.237,2.866,5.282,7.619,7.745,12.051c5.166,9.294,7,20.279-4.571,26.711l-0.554,0.308
		C-361.891,272.042-370.374,264.752-375.471,255.58z M-355.642,254.872c4.37-2.429,4.588-6.095,1.715-11.266
		c-0.479-0.862-2.483-4.179-2.956-4.883l-12.557,6.979c0.315,0.711,2.271,4.377,2.648,5.054c3.045,5.479,6.41,6.75,10.596,4.424
		L-355.642,254.872z"/>
</g>
<g display="none">
	<path display="inline" fill="#623D18" d="M-641.206,426.959c-1.626-1.061-5.478-4.501-9.296-9.311
		c-8.292-10.443-10.65-24.702,5.703-37.685l8.658-6.874c16.353-12.982,29.636-7.397,37.928,3.046
		c3.819,4.81,6.295,9.341,6.96,11.165c0.489,1.181,0.65,1.948-0.312,2.712l-6.665,5.291c-0.824,0.655-1.701,0.68-2.411-0.214
		c-0.054-0.069-0.109-0.138-0.164-0.206c-1.867-2.774-4.523-6.827-7.523-10.605c-3.764-4.741-9.238-6.557-18.376,0.698l-8.657,6.874
		c-9.139,7.255-8.612,12.998-4.848,17.738c3,3.779,6.344,7.286,8.623,9.733c0.055,0.068,0.109,0.138,0.164,0.206
		c0.709,0.894,0.487,1.742-0.337,2.396l-6.665,5.291C-639.387,427.979-640.167,427.703-641.206,426.959z"/>
	<path display="inline" fill="#623D18" d="M-599.132,458.884c-12.777-6.805-19.251-19.1-9.682-37.065l4.908-9.216
		c9.568-17.965,23.384-19.454,36.161-12.648c12.777,6.805,19.251,19.1,9.682,37.065l-4.908,9.216
		C-572.54,464.2-586.354,465.689-599.132,458.884z M-571.382,429.926c4.949-9.293,3.955-14.892-2.55-18.356
		c-6.504-3.465-11.628-1.124-16.578,8.169l-4.908,9.215c-4.949,9.293-4.033,14.851,2.472,18.315s11.706,1.165,16.655-8.128
		L-571.382,429.926z"/>
	<path display="inline" fill="#623D18" d="M-506.571,426.509l-17.768-1.218c-4.113-0.281-5.697,1.017-6.009,5.568l-0.54,7.877
		l22.669,1.553c0.962,0.066,1.696,0.908,1.63,1.871l-0.57,8.314c-0.066,0.963-0.908,1.696-1.87,1.631l-22.669-1.554l-1.751,25.558
		c-0.066,0.963-0.908,1.696-1.871,1.631l-11.378-0.78c-0.963-0.065-1.697-0.907-1.631-1.87l3.101-45.25
		c1.091-15.93,11.349-18.041,22.639-17.268c9.453,0.648,13.781,1.648,16.814,2.296c1.213,0.259,1.708,0.732,1.63,1.87l-0.558,8.14
		C-504.767,425.841-505.608,426.574-506.571,426.509z"/>
	<path display="inline" fill="#623D18" d="M-461.735,413.989l-16.956,5.449c-3.926,1.262-4.917,3.054-3.521,7.397l2.416,7.518
		l21.633-6.952c0.919-0.295,1.912,0.215,2.208,1.134l2.55,7.936c0.295,0.919-0.215,1.912-1.134,2.207l-21.633,6.951l7.837,24.391
		c0.295,0.918-0.215,1.912-1.133,2.207l-10.859,3.489c-0.918,0.295-1.912-0.215-2.207-1.134l-13.876-43.184
		c-4.885-15.201,3.862-20.961,14.637-24.424c9.021-2.898,13.412-3.572,16.47-4.094c1.223-0.209,1.858,0.048,2.207,1.134l2.496,7.768
		C-460.306,412.701-460.816,413.694-461.735,413.989z"/>
	<path display="inline" fill="#623D18" d="M-391.19,426.213c-2.084,2.298-5.08,5.694-12.374,11.742
		c-8.712,7.224-18.259,11.379-28.451-0.912l-18.592-22.422c-10.192-12.292-4.217-20.893,4.495-28.116
		c7.294-6.049,11.119-8.308,13.762-9.931c1.058-0.648,1.743-0.647,2.471,0.231l5.208,6.28c0.616,0.743,0.512,1.854-0.23,2.471
		l-13.71,11.368c-3.174,2.632-3.426,4.664-0.514,8.176l5.096,6.146l17.492-14.504c0.743-0.616,1.854-0.513,2.471,0.23l5.32,6.416
		c0.616,0.742,0.512,1.854-0.23,2.471l-17.492,14.504l5.936,7.158c2.912,3.512,4.957,3.641,8.13,1.009l13.71-11.368
		c0.743-0.616,1.854-0.512,2.471,0.23l5.208,6.281C-390.288,424.552-390.356,425.294-391.19,426.213z"/>
	<path display="inline" fill="#623D18" d="M-354.777,370.975c-1.088,2.905-2.619,7.168-7.164,15.481
		c-5.429,9.931-12.767,17.317-26.777,9.658l-25.557-13.972c-14.011-7.659-11.634-17.858-6.206-27.789
		c4.545-8.313,7.265-11.826,9.123-14.311c0.743-0.993,1.38-1.245,2.381-0.697l7.159,3.913c0.847,0.463,1.161,1.535,0.698,2.382
		l-8.543,15.627c-1.978,3.618-1.462,5.6,2.541,7.788l7.005,3.83l10.9-19.938c0.463-0.847,1.534-1.16,2.381-0.697l7.313,3.998
		c0.847,0.463,1.161,1.534,0.698,2.381l-10.899,19.938l8.16,4.461c4.003,2.188,5.95,1.554,7.928-2.064l8.543-15.627
		c0.463-0.847,1.535-1.161,2.381-0.698l7.159,3.914C-354.551,369.099-354.342,369.813-354.777,370.975z"/>
</g>
<path display="none" fill="none" stroke="#623D18" stroke-width="12.0579" stroke-miterlimit="10" d="M-691.156,358.238"/>
<circle display="none" fill="none" stroke="#623D18" stroke-width="12.422" stroke-miterlimit="10" cx="-511.432" cy="304.236" r="194.959"/>
<path display="none" fill="#2A160C" d="M1366.858-443.756c4.075-1.482,12.782-20.98,14.449-22.092
	c1.667-1.111-0.741-2.782,4.075-4.635c4.816-1.852,9.633-15.56,12.226-17.413c2.593-1.852-5.557,1.482,10.744,3.334
	c0,0,2.408-0.556,4.816-2.593c2.408-2.038,21.303-26.49,23.896-29.083c2.593-2.593,2.593-2.593,2.593-2.593s2.964,2.408,6.669,4.816
	c3.705,2.408,2.593,3.705,3.705,2.408s15.375-16.487,15.375-16.487s12.411,14.264,19.08,23.896
	c6.669,9.633,12.041,16.857,12.597,16.95c0.556,0.093,3.149-1.019,5.372-2.686c2.223-1.667,3.149-4.446,4.446-1.667
	s12.226,13.893,13.523,14.634c1.297,0.741,0.556,1.482,4.446,1.852c3.89,0.37,4.261-0.556,8.336,1.297
	c4.075,1.852,14.449,13.152,20.747,16.301c6.298,3.149,14.44,7.225,14.44,7.225s-23.263-0.5-39.38,1.723
	s-21.835-7.095-39.016-17.654c-17.181-10.559-25.517-14.449-36.076-10.003c-10.559,4.446-39.457,13.338-54.462,17.228
	C1384.456-455.108,1366.858-443.756,1366.858-443.756z"/>
<path display="none" fill="#FFFFFF" stroke="#FFFFFF" stroke-width="0.7318" stroke-miterlimit="10" d="M1410.912-487.165
	c0.628-0.269,1.796,0.269,1.796,0.269s1.526,0.18,1.526-0.18c0-0.359-0.359-0.988-0.628-1.706c-0.269-0.718,0.449-1.526,0.539-1.616
	c0.09-0.09-1.706-0.18-0.18-1.167s1.706-0.539,1.706-1.437s-0.628-1.616-0.628-1.616s-4.669,3.771-5.567,5.028
	c-0.233,0.326-0.471,0.712-0.697,1.105c0.329,0.639,0.652,1.284,0.968,1.933C1410.123-486.769,1410.588-487.026,1410.912-487.165z"
	/>
<path display="none" fill="#FFFFFF" stroke="#FFFFFF" stroke-width="0.7318" stroke-miterlimit="10" d="M1464.602-524.514
	c0,0-10.953,12.659-10.953,13.198c0,0.539,1.437,0.539,1.796,1.257s0.09,1.347-1.167,2.155c-1.257,0.808-5.207,4.22-5.477,5.028
	c-0.269,0.808-0.269,3.412-0.988,4.399s-1.347,1.795-1.526,2.244c-0.18,0.449-1.257,1.796-1.257,2.963c0,1.167,0.629,1.975,0,2.334
	c-0.628,0.359-1.257,1.347-1.975,1.975s-1.975,0.808-2.514,2.514s0,2.873,0,2.873s4.399-3.412,4.759-3.412s1.437,0.269,1.437,1.077
	s0.359,2.065-0.359,3.232c-0.718,1.167-1.975,2.514-2.245,3.232c-0.269,0.718,0,2.424,0,2.424h0.808c0,0-0.18-0.718,1.167-2.334
	c1.347-1.616,0.629-2.245,2.424-1.975s3.531,2.604,3.92,1.167c0.389-1.437,0.03-2.245,0.838-3.95
	c0.808-1.706,0.718-2.424,2.693-3.502s3.501-2.245,4.31-2.334c0.808-0.09,2.604,0.449,1.796-0.449
	c-0.808-0.898-1.257-1.796-2.424-1.347c-1.167,0.449-1.885,0.449-2.334-0.808c-0.449-1.257-1.077-1.437-1.616-2.245
	s-0.718-2.155-0.628-3.591c0.09-1.437,1.347-2.604,1.616-2.873c0.269-0.269,3.322-3.501,4.31-5.028
	c0.988-1.526,1.347-1.526,0.539-2.514c-0.808-0.988-1.796-0.898-1.257-1.706s0.898-4.758,0.898-5.477s-0.269-0.359,0.898-1.975
	c1.167-1.616,2.514-1.885,2.514-4.22S1464.602-524.514,1464.602-524.514z"/>
<path display="none" fill="#FFFFFF" stroke="#FFFFFF" stroke-width="0.506" stroke-miterlimit="10" d="M1413.247-482.761
	c0,0-5.711,3.352-6.891,3.352s-2.111-0.993-2.669-0.993s-1.986,0.745-2.855,0.993c-0.869,0.248-0.869-2.049-1.614,0
	c-0.745,2.049-0.621,2.669-0.435,2.856c0.186,0.186,0.683,0.621,1.614,0.372c0.931-0.248,1.862-0.683,2.235-0.248
	s0.993,0.435,0.248,1.49c-0.745,1.055-2.048,2.856-2.483,3.538c-0.435,0.683-0.124,0.931-1.242,1.304
	c-1.117,0.372-0.869-0.062-2.545,0.497c-1.676,0.559-2.235,0.186-2.359,0.621s-0.062,0.435,0.931,1.055
	c0.993,0.621,1.117,0.248,1.738,1.179s1.366,1.055,2.173,0.745c0.807-0.31,2.607-1.552,3.29-1.924s1.505-0.31,1.342-1.366
	s-0.458-0.993,0-2.049c0.458-1.055,0.396-1.304,1.265-1.552c0.869-0.248,2.98-1.242,3.476-1.986
	c0.497-0.745,0.435-1.366,0.435-1.924s0.062-1.614,1.428-1.676c1.366-0.062,1.862,0.186,2.235,0
	c0.372-0.186-0.186-1.676,0.186-2.731C1413.123-482.265,1413.247-482.761,1413.247-482.761z"/>
<path display="none" fill="#FFFFFF" stroke="#FFFFFF" stroke-width="0.7318" stroke-miterlimit="10" d="M1505.433-483.278v-0.718
	c0,0-3.232,1.118-3.681,1.457c-0.449,0.339-0.718,0.339-1.616,0.608s-2.693,0.628-3.322,0.988c-0.629,0.359-1.885,1.885-2.604,2.514
	c-0.718,0.628-1.526,2.334-1.796,2.873c-0.269,0.539-0.359,1.975-1.257,2.334s-2.693,1.885-3.232,2.245s-0.988,1.428,1.526,0.669
	s4.759-3.901,6.105-4.53s2.514-0.09,3.232-0.718s1.257-2.424,2.245-2.783c0.988-0.359,2.245-0.718,3.142-0.988
	s2.245-0.269,2.783-0.09s0.09-0.628,0-0.988c-0.09-0.359-0.539-0.808-0.449-1.167c0.09-0.359-0.18-0.967-0.18-0.967
	L1505.433-483.278z"/>
<g display="none">
	<path display="inline" fill="#623D18" d="M1484.221-446.331c0,0-13.25,9-15,12.25s-7.75,5.75-8.75,13.25s-1,7.5-1,7.5
		s-10.704-17.339,1.25-30.083c5.135-5.475,11.667-6.417,14.417-6.417C1488.387-449.831,1484.221-446.331,1484.221-446.331z"/>
	<path display="inline" fill="#623D18" d="M1487.887-445.498c0,0-0.917,3.583-2.667,6.25c-1.75,2.667-12.286,8.833-15.268,11.5
		c-2.982,2.667-7.815,9.583-8.065,12c-0.25,2.417,5.167,4.083,10.083,2.417c4.917-1.667,17.083-9.917,18.083-20.167
		S1487.887-445.498,1487.887-445.498z"/>
</g>
<g display="none">
	<path display="inline" fill="#623D18" d="M1435.919-440.41c0,0,2.655,8.932,4.148,10.475c1.493,1.543,1.822,5.31,5.804,7.186
		c3.982,1.876,3.982,1.876,3.982,1.876s-11.499,2.879-16.458-5.995c-2.13-3.812-1.501-7.599-1.017-9.124
		C1434.712-443.337,1435.919-440.41,1435.919-440.41z"/>
	<path display="inline" fill="#623D18" d="M1437.027-442.296c0,0,1.825,1.14,2.995,2.58c1.17,1.44,2.732,8.368,3.685,10.492
		c0.953,2.123,3.936,6.022,5.232,6.586c1.296,0.564,3.174-2.145,3.117-5.164c-0.057-3.02-2.487-11.219-7.994-13.58
		S1437.027-442.296,1437.027-442.296z"/>
</g>
<circle fill="none" cx="1461.879" cy="-449.831" r="81.364"/>
<text transform="matrix(0.6751 -0.7378 0.7378 0.6751 1393.8323 -495.9948)" display="none"><tspan x="0" y="0" display="inline" font-family="'NeoSans-Bold'" font-size="40.8828">E</tspan><tspan x="22.008" y="-0.059" display="inline" font-family="'NeoSans-Bold'" font-size="40.8828" rotate="14.467">L</tspan><tspan x="41.011" y="4.233" display="inline" font-family="'NeoSans-Bold'" font-size="40.8828" rotate="29.908">G</tspan><tspan x="62.556" y="15.879" display="inline" font-family="'NeoSans-Bold'" font-size="40.8828" rotate="48.469">O</tspan><tspan x="80.595" y="35.28" display="inline" font-family="'NeoSans-Bold'" font-size="40.8828" rotate="66.524">N</tspan><tspan x="91.53" y="60.817" display="inline" font-family="'NeoSans-Bold'" font-size="40.8828" rotate="83.967">T</tspan><tspan x="93.467" y="83.271" display="inline" font-family="'NeoSans-Bold'" font-size="40.8828" rotate="95.785">I</tspan><tspan x="93.255" y="94.617" display="inline" font-family="'NeoSans-Bold'" font-size="40.8828" rotate="108.486">P</tspan></text>
<circle fill="none" cx="1460.189" cy="-466.56" r="101.364"/>
<text transform="matrix(0.622 0.783 -0.783 0.622 1371.8882 -414.7478)" display="none"><tspan x="0" y="0" display="inline" fill="#623D18" font-family="'NeoSans-Bold'" font-size="50.9321">C</tspan><tspan x="38.66" y="-1.363" display="inline" fill="#623D18" font-family="'NeoSans-Bold'" font-size="50.9321" rotate="-23.557">O</tspan><tspan x="79.36" y="-22.175" display="inline" fill="#623D18" font-family="'NeoSans-Bold'" font-size="50.9321" rotate="-47.742">F</tspan><tspan x="104.162" y="-52.042" display="inline" fill="#623D18" font-family="'NeoSans-Bold'" font-size="50.9321" rotate="-69.513">F</tspan><tspan x="116.056" y="-89.045" display="inline" fill="#623D18" font-family="'NeoSans-Bold'" font-size="50.9321" rotate="-91.411">E</tspan><tspan x="113.354" y="-127.698" display="inline" fill="#623D18" font-family="'NeoSans-Bold'" font-size="50.9321" rotate="-113.133">E</tspan></text>
<path display="none" fill="none" stroke="#623D18" stroke-width="7" stroke-miterlimit="10" d="M1358.961-435.065"/>
<circle display="none" fill="none" stroke="#623D18" stroke-width="7.2114" stroke-miterlimit="10" cx="1463.296" cy="-466.415" r="113.18"/>
</svg>
