<?xml version="1.0" encoding="utf-8"?>
<!-- Generator: Adobe Illustrator 17.0.0, SVG Export Plug-In . SVG Version: 6.00 Build 0)  -->
<!DOCTYPE svg PUBLIC "-//W3C//DTD SVG 1.1//EN" "http://www.w3.org/Graphics/SVG/1.1/DTD/svg11.dtd">
<svg version="1.1" id="Layer_1" xmlns="http://www.w3.org/2000/svg" xmlns:xlink="http://www.w3.org/1999/xlink" x="0px" y="0px"
	 width="841.89px" height="595.28px" viewBox="0 0 841.89 595.28" enable-background="new 0 0 841.89 595.28" xml:space="preserve">
<path fill="#2D4B0F" d="M-36.69,1431.185c0,0,34.034-24.059,57.506-18.778c23.472,5.281,41.076,9.01,41.076,9.01
	s-13.496,15.636-21.712,17.983c-8.215,2.347-17.017,5.281-9.389,5.281s34.621-1.76,45.184-22.298
	c10.562-20.538,24.059-55.746,36.382-58.68c12.323-2.934,21.712,9.389,46.357,24.646s37.555,15.626,37.555,15.626
	s-21.125-9.758-23.472-16.8s12.323-18.191,19.364-19.951c7.042-1.76,36.382,18.778,62.201,39.316s52.812,33.448,52.812,33.448
	s-23.472-17.017-25.819-25.232s2.934-14.67,6.455-14.67c3.521,0,11.736-7.042,29.927,9.389s46.357,34.621,56.92,39.902
	c10.562,5.281,10.562,5.281,10.562,5.281s-55.159-48.704-74.524-65.135s-32.861-1.174-36.382,2.347
	c-3.521,3.521-24.646-12.91-52.225-31.687s-24.646-25.232-43.423-9.976c-18.778,15.257-18.778,15.257-24.646,11.736
	c-4.956-2.973-26.872-36.884-29.406-42.584c-4.694-10.562-12.961-7.296-19.885,6.79c-6.368,12.953-28.166,75.11-45.77,74.524
	c-26.044-0.868-22.885-10.562-44.597-5.868C-7.35,1399.498-36.69,1431.185-36.69,1431.185z"/>
<g>
	<path fill="#623D18" d="M203.751,1430.305c0,0-23.325,15.844-26.406,21.565c-3.081,5.721-13.643,10.122-15.403,23.325
		c-1.76,13.203-1.76,13.203-1.76,13.203s-18.843-30.524,2.201-52.959c9.04-9.638,20.538-11.296,25.379-11.296
		C211.086,1424.143,203.751,1430.305,203.751,1430.305z"/>
	<path fill="#623D18" d="M210.206,1431.772c0,0-1.614,6.308-4.694,11.002c-3.081,4.694-21.629,15.55-26.878,20.245
		c-5.249,4.694-13.758,16.87-14.198,21.125c-0.44,4.254,9.095,7.188,17.751,4.254c8.655-2.934,30.074-17.457,31.834-35.501
		C215.781,1434.852,210.206,1431.772,210.206,1431.772z"/>
</g>
<g>
	<path fill="#623D18" d="M118.72,1440.728c0,0,4.673,15.724,7.302,18.44c2.629,2.716,3.208,9.348,10.217,12.651
		c7.01,3.303,7.01,3.303,7.01,3.303s-20.244,5.068-28.973-10.553c-3.75-6.71-2.643-13.377-1.79-16.061
		C116.597,1435.575,118.72,1440.728,118.72,1440.728z"/>
	<path fill="#623D18" d="M120.671,1437.408c0,0,3.213,2.006,5.273,4.542c2.06,2.535,4.81,14.732,6.487,18.469
		c1.678,3.738,6.929,10.601,9.21,11.594c2.281,0.994,5.588-3.776,5.487-9.092s-4.379-19.75-14.072-23.906
		C123.361,1434.86,120.671,1437.408,120.671,1437.408z"/>
</g>
<g>
	<path d="M68.908,1315.92c-1.435,2.102-3.488,5.198-8.735,10.933c-6.268,6.851-13.558,11.301-23.223,2.458l-17.629-16.129
		c-9.664-8.842-5.776-16.503,0.491-23.354c5.247-5.735,8.101-8.001,10.067-9.617c0.786-0.646,1.343-0.722,2.034-0.091l4.938,4.519
		c0.584,0.534,0.625,1.45,0.09,2.034l-9.862,10.779c-2.283,2.496-2.26,4.176,0.501,6.702l4.832,4.421l12.583-13.753
		c0.534-0.584,1.449-0.625,2.034-0.091l5.044,4.616c0.584,0.535,0.625,1.45,0.09,2.034l-12.583,13.753l5.629,5.15
		c2.761,2.526,4.437,2.4,6.72-0.095l9.863-10.78c0.534-0.584,1.449-0.625,2.033-0.09l4.938,4.519
		C69.454,1314.47,69.482,1315.079,68.908,1315.92z"/>
	<path d="M99.345,1295.237c-1.716,1.718-6.125,5.103-9.322,7.184c-7.781,5.065-16.013,7.589-23.158-3.389l-20.298-31.185
		c-0.432-0.663-0.242-1.56,0.421-1.991l7.902-5.143c0.663-0.432,1.56-0.243,1.991,0.421l20.298,31.185
		c2.042,3.136,3.695,3.434,6.53,1.589l10.375-6.753c0.664-0.432,1.56-0.242,1.992,0.421l3.651,5.61
		C100.237,1293.97,100.071,1294.507,99.345,1295.237z"/>
	<path d="M124.723,1241.498c-0.068,0.022-0.137,0.043-0.206,0.065c-3.336,0.908-8.613,2.129-14.444,3.98
		c-5.557,1.764-8.138,5.528-5.286,14.515l2.722,8.576c3.005,9.467,8.023,10.291,11.385,9.224c1.921-0.61,3.614-1.223,5.217-1.882
		l-5.008-15.779c-0.24-0.755,0.113-1.546,0.868-1.786l8.781-2.787c0.755-0.24,1.568,0.182,1.808,0.937l7.316,23.051
		c0.305,0.96,0.092,1.481-0.872,2.013c-3.465,1.931-8.049,4.141-14.91,6.318c-7.821,2.482-20.967,1.746-26.476-15.61l-2.7-8.507
		c-5.553-17.494,3.962-25.347,13.909-28.504c6.86-2.178,12.126-2.716,14.839-2.973c0.729-0.081,1.297,0.042,1.493,0.659l2.308,7.272
		C125.709,1241.034,125.341,1241.302,124.723,1241.498z"/>
	<path d="M164.787,1281.556c-11.874-0.191-21.197-6.748-20.928-23.442l0.138-8.563c0.269-16.695,9.799-22.947,21.672-22.756
		s21.197,6.748,20.928,23.442l-0.138,8.563C186.191,1275.495,176.66,1281.747,164.787,1281.556z M174.221,1250.037
		c0.139-8.635-2.68-12.352-8.725-12.449c-6.045-0.097-8.911,3.527-9.05,12.163l-0.138,8.563c-0.139,8.635,2.608,12.35,8.653,12.448
		c6.044,0.098,8.982-3.526,9.121-12.162L174.221,1250.037z"/>
	<path d="M228.524,1294.7l-6.668-2.3c-1.429-0.493-2.355-1.117-2.81-3.33l-6.267-32.158c-0.131-0.502-0.221-0.685-0.425-0.755
		s-0.387,0.019-0.528,0.427l-9.504,27.556c-0.258,0.749-1.082,1.15-1.83,0.892l-8.029-2.769c-0.749-0.258-1.149-1.082-0.892-1.83
		l16.076-46.607c0.493-1.429,2.048-2.187,3.478-1.694l6.872,2.371c1.361,0.469,1.807,1.384,2.13,3.095l6.456,33.594
		c0.132,0.502,0.153,0.662,0.357,0.732c0.136,0.047,0.387-0.019,0.551-0.495l9.927-28.781c0.258-0.748,1.059-1.082,1.807-0.823
		l8.028,2.77c0.749,0.258,1.173,1.014,0.915,1.762l-16.099,46.675C231.577,1294.458,229.953,1295.193,228.524,1294.7z"/>
	<path d="M289.554,1284.634l-9.376-6.931l-24.901,33.684c-0.471,0.637-1.376,0.772-2.013,0.302l-7.582-5.604
		c-0.637-0.471-0.772-1.377-0.302-2.014l24.901-33.684l-9.434-6.974c-0.637-0.471-0.815-1.318-0.345-1.955l4.407-5.961
		c0.471-0.637,1.333-0.714,1.97-0.244l28.707,21.222c0.637,0.471,0.873,1.362,0.402,1.999l-4.407,5.961
		C291.112,1285.07,290.191,1285.105,289.554,1284.634z"/>
	<path d="M274.583,1332.47l-6.417-7.201c-0.526-0.592-0.378-1.398,0.213-1.925l37.834-33.709c0.591-0.527,1.356-0.534,1.883,0.058
		l6.416,7.201c0.527,0.591,0.48,1.404-0.111,1.931l-37.834,33.709C275.976,1333.06,275.11,1333.061,274.583,1332.47z"/>
	<path d="M305.945,1345.357c-0.838-1.511-1.83-3.595-2.639-5.203l-15.295,8.483c-0.692,0.385-1.573,0.132-1.958-0.561l-4.503-8.119
		c-0.384-0.692-0.195-1.538,0.498-1.923l42.297-23.46c2.14-1.187,3.195-0.62,4.592,1.157c2.284,2.931,5.392,7.791,7.905,12.323
		c5.272,9.505,7.138,20.733-4.695,27.297l-0.566,0.314C319.81,1362.194,311.146,1354.736,305.945,1345.357z M326.212,1344.651
		c4.469-2.479,4.695-6.226,1.763-11.513c-0.489-0.882-2.535-4.273-3.017-4.994l-12.84,7.122c0.321,0.728,2.318,4.476,2.702,5.168
		c3.107,5.603,6.546,6.905,10.826,4.53L326.212,1344.651z"/>
</g>
<g>
	<path fill="#623D18" d="M34.314,1520.4c-1.663-1.085-5.599-4.6-9.501-9.516c-8.475-10.674-10.886-25.246,5.827-38.516l8.848-7.025
		c16.713-13.27,30.289-7.562,38.764,3.111c3.903,4.915,6.435,9.546,7.114,11.41c0.5,1.206,0.665,1.991-0.318,2.771l-6.812,5.408
		c-0.843,0.67-1.739,0.694-2.464-0.219c-0.056-0.07-0.111-0.141-0.167-0.211c-1.908-2.835-4.624-6.977-7.69-10.838
		c-3.847-4.846-9.441-6.7-18.781,0.715l-8.848,7.025c-9.339,7.415-8.801,13.285-4.954,18.13c3.067,3.862,6.484,7.445,8.814,9.946
		c0.056,0.07,0.111,0.141,0.167,0.211c0.725,0.913,0.498,1.78-0.345,2.449l-6.811,5.408
		C36.172,1521.443,35.375,1521.16,34.314,1520.4z"/>
	<path fill="#623D18" d="M77.407,1553.063c-13.062-6.946-19.686-19.507-9.918-37.873l5.01-9.42
		c9.767-18.366,23.884-19.896,36.946-12.95c13.062,6.946,19.686,19.507,9.918,37.873l-5.01,9.42
		C104.586,1558.479,90.469,1560.009,77.407,1553.063z M105.746,1523.452c5.052-9.5,4.033-15.221-2.617-18.757
		c-6.649-3.537-11.884-1.142-16.936,8.358l-5.01,9.42c-5.052,9.5-4.111,15.179,2.538,18.715c6.65,3.537,11.963,1.184,17.015-8.316
		L105.746,1523.452z"/>
	<path fill="#623D18" d="M172.051,1519.89l-18.161-1.221c-4.205-0.282-5.822,1.047-6.134,5.699l-0.541,8.052l23.17,1.557
		c0.984,0.066,1.735,0.926,1.669,1.909l-0.571,8.499c-0.066,0.984-0.926,1.735-1.91,1.669l-23.171-1.557l-1.755,26.123
		c-0.066,0.984-0.925,1.735-1.91,1.669l-11.63-0.781c-0.984-0.066-1.735-0.926-1.669-1.91l3.108-46.252
		c1.094-16.282,11.575-18.453,23.116-17.678c9.662,0.649,14.087,1.666,17.188,2.323c1.24,0.263,1.747,0.746,1.669,1.909l-0.559,8.32
		C173.894,1519.205,173.035,1519.956,172.051,1519.89z"/>
	<path fill="#623D18" d="M217.903,1507.022l-17.318,5.598c-4.01,1.296-5.019,3.13-3.585,7.565l2.481,7.679l22.096-7.142
		c0.938-0.303,1.955,0.217,2.258,1.155l2.619,8.104c0.303,0.938-0.216,1.954-1.155,2.258l-22.096,7.141l8.051,24.911
		c0.303,0.938-0.216,1.955-1.155,2.258l-11.09,3.585c-0.938,0.303-1.955-0.217-2.258-1.155l-14.255-44.106
		c-5.018-15.526,3.911-21.428,14.916-24.984c9.213-2.978,13.7-3.674,16.823-4.212c1.25-0.216,1.899,0.045,2.258,1.154l2.564,7.935
		C219.361,1505.703,218.841,1506.719,217.903,1507.022z"/>
	<path fill="#623D18" d="M290.083,1519.324c-2.125,2.353-5.179,5.829-12.619,12.025c-8.888,7.401-18.635,11.669-29.077-0.87
		l-19.048-22.872c-10.442-12.539-4.355-21.342,4.532-28.742c7.44-6.197,11.344-8.515,14.042-10.178
		c1.079-0.666,1.779-0.665,2.525,0.23l5.335,6.407c0.631,0.758,0.527,1.894-0.23,2.525l-13.985,11.646
		c-3.238,2.696-3.491,4.774-0.508,8.356l5.221,6.27l17.843-14.859c0.758-0.632,1.894-0.528,2.525,0.229l5.45,6.545
		c0.631,0.758,0.528,1.895-0.23,2.525l-17.843,14.86l6.082,7.303c2.983,3.582,5.073,3.709,8.311,1.013l13.985-11.646
		c0.758-0.632,1.895-0.528,2.525,0.229l5.336,6.407C291.002,1517.624,290.933,1518.382,290.083,1519.324z"/>
	<path fill="#623D18" d="M327.209,1462.685c-1.104,2.972-2.655,7.333-7.276,15.843c-5.52,10.165-12.997,17.735-27.338,9.949
		l-26.161-14.205c-14.341-7.787-11.942-18.218-6.423-28.383c4.621-8.51,7.391-12.107,9.282-14.651
		c0.756-1.018,1.407-1.276,2.432-0.72l7.328,3.979c0.867,0.471,1.191,1.565,0.72,2.432l-8.686,15.996
		c-2.011,3.703-1.478,5.728,2.62,7.952l7.17,3.894l11.082-20.408c0.471-0.867,1.565-1.191,2.432-0.721l7.486,4.065
		c0.867,0.47,1.191,1.564,0.72,2.432l-11.082,20.408l8.353,4.535c4.097,2.225,6.085,1.569,8.096-2.134l8.686-15.996
		c0.471-0.866,1.565-1.19,2.432-0.72l7.328,3.979C327.434,1460.767,327.65,1461.496,327.209,1462.685z"/>
</g>
<g>
	<path fill="#623D18" d="M67.369,499.437v-62.262h38.371v7.333c0,4.889-2.368,7.333-7.103,7.333H85.632v8.947h18.263v7.379
		c0,4.92-2.368,7.38-7.103,7.38H85.632v9.224h20.108v7.333c0,4.889-2.368,7.333-7.103,7.333H67.369z"/>
	<path fill="#623D18" d="M142.912,499.437h-23.429c-6.088,0-9.131-2.675-9.131-8.025v-54.236h9.131c6.088,0,9.132,2.675,9.132,8.025
		v39.57h20.016v7.333C148.631,496.993,146.724,499.437,142.912,499.437z"/>
	<path fill="#623D18" d="M211.03,461.25v25.273c0,3.813-2.029,7.011-6.087,9.593c-4.059,2.583-10.716,3.874-19.97,3.874
		c-9.255,0-16.972-2.975-23.152-8.924c-6.18-5.949-9.27-13.735-9.27-23.359c0-9.623,3.074-17.425,9.224-23.405
		c6.149-5.979,13.536-8.971,22.161-8.971c8.624,0,15.188,1.354,19.693,4.059c4.504,2.706,6.787,5.243,6.849,7.61
		c0.061,2.367-0.715,4.481-2.329,6.341c-1.614,1.86-3.198,2.79-4.75,2.79c-1.553,0-3.797-0.745-6.733-2.236
		c-2.937-1.491-6.879-2.268-11.83-2.329s-8.617,1.453-10.999,4.543c-2.383,3.09-3.575,6.964-3.575,11.622s1.322,8.493,3.966,11.507
		c2.644,3.014,6.149,4.489,10.515,4.427c4.366-0.061,7.103-0.707,8.209-1.937v-4.981h-2.859c-5.534,0-8.301-2.582-8.301-7.748
		v-7.748H211.03z"/>
	<path fill="#623D18" d="M280.901,467.707c0,9.624-3.121,17.41-9.362,23.359c-6.242,5.949-14.144,8.924-23.706,8.924
		c-9.562,0-17.433-2.975-23.613-8.924c-6.18-5.949-9.27-13.735-9.27-23.359c0-9.623,3.074-17.425,9.224-23.405
		c6.149-5.979,14.074-8.971,23.774-8.971c9.7,0,17.618,2.991,23.751,8.971C277.834,450.282,280.901,458.084,280.901,467.707z
		 M259.041,456.131c-2.767-3.044-6.457-4.565-11.068-4.565c-4.612,0-8.317,1.53-11.115,4.589c-2.798,3.06-4.197,6.918-4.197,11.576
		s1.399,8.493,4.197,11.507c2.797,3.014,6.495,4.52,11.091,4.52c4.596,0,8.286-1.522,11.069-4.566
		c2.782-3.044,4.174-6.887,4.174-11.529S261.808,459.175,259.041,456.131z"/>
	<path fill="#623D18" d="M322.455,464.94v-19.739c0-5.351,3.043-8.025,9.131-8.025h9.132v54.236c0,5.351-3.044,8.025-9.132,8.025
		c-3.382,0-6.058-1.169-8.025-3.506l-20.477-24.351v19.831c0,5.351-3.044,8.025-9.132,8.025h-9.131v-62.215l9.131-0.047
		c3.904-0.03,6.703,1.23,8.394,3.782L322.455,464.94z"/>
	<path fill="#623D18" d="M379.505,451.842v39.663c0,5.35-3.044,8.024-9.132,8.024h-9.131v-47.688h-9.224
		c-4.919,0-7.379-2.444-7.379-7.333v-7.333h44.183c4.918,0,7.379,2.444,7.379,7.333s-2.461,7.333-7.379,7.333H379.505z"/>
	<path fill="#623D18" d="M418.383,491.412c0,5.351-3.044,8.025-9.132,8.025h-9.132v-54.236c0-5.351,3.044-8.025,9.132-8.025h9.132
		V491.412z"/>
	<path fill="#623D18" d="M441.258,478.683v12.729c0,5.351-3.044,8.025-9.132,8.025h-9.132V437.36h29.793
		c5.135,0,9.432,2.022,12.891,6.065s5.119,8.854,4.981,14.435c-0.139,5.581-2.053,10.446-5.742,14.597
		c-3.689,4.151-8.471,6.227-14.343,6.227H441.258z M441.258,449.72v14.205h5.258c5.165,0,7.748-2.367,7.748-7.103
		c0-4.734-2.583-7.103-7.748-7.103H441.258z"/>
	<path fill="#623D18" d="M554.572,488.253c0,2.229-1.768,4.743-5.304,7.541c-3.535,2.798-10.085,4.196-19.646,4.196
		c-9.562,0-17.433-2.975-23.613-8.924c-6.18-5.949-9.27-13.735-9.27-23.359c0-9.623,3.074-17.425,9.224-23.405
		c6.149-5.979,14.073-8.971,23.774-8.971c9.7,0,16.265,1.399,19.693,4.197c3.428,2.798,5.142,5.312,5.142,7.54
		c0,2.229-0.737,4.213-2.213,5.95c-1.477,1.737-3.099,2.605-4.866,2.605c-1.769,0-4.565-0.676-8.394-2.029
		c-3.828-1.353-6.695-2.029-8.602-2.029c-10.33,0-15.496,5.365-15.496,16.096s5.166,16.096,15.496,16.096
		c1.906,0,4.773-0.676,8.602-2.029c3.828-1.353,6.625-2.029,8.394-2.029c1.768,0,3.39,0.869,4.866,2.605
		C553.835,484.041,554.572,486.024,554.572,488.253z"/>
	<path fill="#623D18" d="M624.443,467.707c0,9.624-3.121,17.41-9.362,23.359s-14.144,8.924-23.705,8.924
		c-9.562,0-17.433-2.975-23.613-8.924c-6.18-5.949-9.27-13.735-9.27-23.359c0-9.623,3.074-17.425,9.224-23.405
		c6.149-5.979,14.073-8.971,23.774-8.971c9.7,0,17.618,2.991,23.752,8.971C621.377,450.282,624.443,458.084,624.443,467.707z
		 M602.583,456.131c-2.767-3.044-6.457-4.565-11.068-4.565c-4.612,0-8.317,1.53-11.115,4.589c-2.798,3.06-4.196,6.918-4.196,11.576
		s1.398,8.493,4.196,11.507s6.495,4.52,11.092,4.52s8.286-1.522,11.068-4.566c2.783-3.044,4.174-6.887,4.174-11.529
		S605.351,459.175,602.583,456.131z"/>
	<path fill="#623D18" d="M637.495,499.437c-6.088,0.03-9.132-2.645-9.132-8.025v-54.236h38.371v7.333
		c0,4.889-2.367,7.333-7.102,7.333h-13.006v8.947h18.263v7.379c0,4.92-2.367,7.38-7.102,7.38h-11.161v15.864
		C646.627,496.732,643.583,499.407,637.495,499.437z"/>
	<path fill="#623D18" d="M680.479,499.437c-6.088,0.03-9.132-2.645-9.132-8.025v-54.236h38.371v7.333
		c0,4.889-2.367,7.333-7.102,7.333H689.61v8.947h18.263v7.379c0,4.92-2.367,7.38-7.102,7.38H689.61v15.864
		C689.61,496.732,686.566,499.407,680.479,499.437z"/>
	<path fill="#623D18" d="M714.33,499.437v-62.262h38.371v7.333c0,4.889-2.367,7.333-7.102,7.333h-13.006v8.947h18.263v7.379
		c0,4.92-2.367,7.38-7.102,7.38h-11.161v9.224h20.107v7.333c0,4.889-2.367,7.333-7.102,7.333H714.33z"/>
	<path fill="#623D18" d="M757.312,499.437v-62.262h38.371v7.333c0,4.889-2.367,7.333-7.102,7.333h-13.006v8.947h18.263v7.379
		c0,4.92-2.367,7.38-7.102,7.38h-11.161v9.224h20.107v7.333c0,4.889-2.367,7.333-7.102,7.333H757.312z"/>
</g>
<g>
	<path fill="none" d="M224.718,183.439c0,0-3.315,7.905,2.439,18.981c1.582,3.044,2.909,5.412,4.015,7.272
		c0.91-0.824,1.768-1.579,2.586-2.283c-2.472-3.13-6.281-8.509-7.153-12.94C225.291,187.787,224.718,183.439,224.718,183.439z"/>
	<path fill="none" d="M283.222,312.313c0,0-0.791,2.873,0.512,1.754c1.302-1.119,9.548-8.875,12.2-12.519s5.046-6.263,5.046-6.263
		s-0.918,1.484,7.093,0.751c8.011-0.733,9.367-1.257,9.367-1.257s-11.363-1.361-12.967-1.614c-1.604-0.253-1.604-0.253-1.604-0.253
		s4.384-8.725,6.92-16.238c-2.191-0.169-4.431-0.373-6.716-0.612c-0.179,0.559-0.337,1.122-0.538,1.677
		C296.086,295.532,283.222,312.313,283.222,312.313z"/>
	<path fill="#2A160C" d="M652.917,232.705c-11.632-6.574-16.184-6.069-29.333-12.643c-13.149-6.575-30.344-26.804-34.896-30.344
		c-4.552-3.54-18.206-1.517-23.264-1.517c-5.057,0-6.574-3.54-6.574-3.54s-1.517-3.034-9.609-14.666
		c-8.092-11.632-17.701-20.229-23.264-17.701c-5.563,2.529-19.724,5.057-19.724,5.057s-62.711-83.447-64.229-82.941
		c-1.517,0.506-29.839,30.85-32.873,33.884c-3.034,3.034-21.241-14.666-21.241-14.666s0,0-7.08,7.08
		c-7.08,7.08-47.539,57.654-56.137,63.723c-8.597,6.069-23.264-9.103-23.264-9.103s0,0-2.529,3.034
		c-1.166,1.4-9.22,10.44-17.906,19.922c1.193,2.196,2.383,4.436,3.552,6.707c0.636-1.107,1.308-2.195,1.963-3.112
		c2.529-3.54,15.678-14.161,15.678-14.161s1.77,2.023,1.77,4.552c0,2.529-0.506,1.264-4.804,4.046s0.759,3.034,0.506,3.287
		c-0.253,0.253-2.276,2.529-1.517,4.552c0.759,2.023,1.77,3.793,1.77,4.804c0,1.012-4.299,0.506-4.299,0.506
		s-3.287-1.517-5.057-0.759c-0.912,0.391-2.222,1.115-3.282,1.727c3.868,7.953,7.294,16.109,9.451,23.824
		c7.081,25.321,11.915,44.455,6.348,61.804c2.286,0.239,4.525,0.442,6.716,0.612c0.729-2.159,1.313-4.223,1.586-5.945
		c1.226-7.714,0.735-22.672,0.735-22.672s11.29,0.567,16.167,0.121c4.876-0.446,8.754-2.201,8.754-2.201s-9.375-0.742-13.754-2.542
		c-4.379-1.8-8.192-1.251-9.255-1.353c-1.063-0.103-2.674-2.356-2.747-3.149c-0.073-0.793,0.973-6.637,4.265-10.966
		c3.291-4.329,9.346-11.084,9.346-11.084s7.459,0.918,12.023,0.9c4.564-0.018,8.185-0.749,8.185-0.749s-7.55-1.91-10.866-3.607
		c-3.316-1.697-3.443-3.078-3.443-3.078s10.512-11.772,16.611-16.131c6.098-4.359,6.098-4.359,6.098-4.359s8.45,0.227,11.007-0.607
		c2.558-0.834,2.558-0.834,2.558-0.834s-3.189-0.308-4.655-0.974c-1.466-0.666-1.466-0.666-1.466-0.666s8.464-5.376,14.835-6.759
		c6.371-1.383,8.598-1.987,8.598-1.987l2.072-0.39c0,0-14.573,11.536-16.803,25.543c-1.645,10.332-3.491,40.487-12.386,67.818
		c48.209-14.679,120.008-49.963,156.713-55.013c34.184-4.703,98.614,32.485,112.268,34.002c13.654,1.517,43.369-1.101,43.369-1.101
		S664.549,239.279,652.917,232.705z M381.845,177.261c-1.045,0.096-12.996-0.011-20.56,3.682
		c-7.564,3.693-23.309,13.936-23.309,13.936s1.948-5.579,3.907-8.159c1.959-2.58,7.315-7.371,7.315-7.371s-8.829,3.308-11.749,9.777
		c-2.92,6.468-5.097,11.469-5.097,11.469s-10.869,9.796-13.557,13.043c-2.688,3.247-5.605,5.914-5.605,5.914
		s-1.285-8.284,1.773-15.165c3.058-6.881,5.536-10.509,5.536-10.509s-0.007-2-2.888,1.064c-2.881,3.064-5.913,12.144-6.888,16.834
		c-0.976,4.69-1.294,12.721-1.294,12.721l-0.78,1.072c-0.559-0.349-2.41-10.982-3.252-12.505
		c-0.842-1.523-4.151-10.822-4.315-12.608c-0.163-1.785-1.223-5.689-1.223-5.689s22.743-16.284,37.364-19.623
		s26.361-3.613,32.217-2.948c5.856,0.664,14.239,3.998,14.239,3.998S382.89,177.165,381.845,177.261z"/>
	<path fill="#FFFFFF" d="M290.557,188.706c1.77-0.759,5.057,0.759,5.057,0.759s4.299,0.506,4.299-0.506
		c0-1.011-1.011-2.781-1.77-4.804c-0.759-2.023,1.264-4.299,1.517-4.552c0.253-0.253-4.805-0.506-0.506-3.287
		s4.804-1.517,4.804-4.046c0-2.529-1.77-4.552-1.77-4.552s-13.149,10.62-15.678,14.161c-0.655,0.917-1.327,2.005-1.963,3.112
		c0.926,1.799,1.838,3.615,2.727,5.443C288.335,189.82,289.645,189.097,290.557,188.706z"/>
	<path fill="#47814D" d="M195.593,245.116c0,0-0.123,0.217-0.304,0.787c0.164-0.174,0.321-0.342,0.491-0.522
		C195.669,245.226,195.593,245.116,195.593,245.116z"/>
	<path fill="#47814D" d="M261.742,279.071c0.265,0.976,2.173-1.199,5.805-3.732c0.952-0.664,2.539-2.123,4.353-3.902
		c-6.657-1.218-13.328-2.557-19.834-3.946c0.829,0.73,1.74,1.501,2.674,2.219C257.761,272.034,261.477,278.095,261.742,279.071z"/>
	<path fill="#47814D" d="M257.937,201.855c1.907-0.817,12.914-12.496,23.059-23.572c-7.68-14.134-15.435-26.393-17.936-32.561
		c-3.476-8.573-3.16-20.784-2.822-26.021c0.103-1.597,0.208-2.546,0.208-2.546s-4.948,9.255-7.527,13.692
		c-2.579,4.437-4.302,14.397-4.302,14.397s0,0,0.99-0.691c0.99-0.691,6.08-4.557,6.08-4.557s0,0-2.202,2.802
		c-2.202,2.802-6.414,8.589-6.414,8.589s-1.643,3.151-2.655,7.444c-1.012,4.293-2.418,29.227-2.363,29.822
		c0.054,0.595,1.741-0.159,3.813-0.549c2.072-0.39,12.694-10.964,13.354-11.424c0.66-0.461-0.653,2.46-1.817,3.167
		c-1.164,0.707-6.816,8.025-7.651,8.502c-0.834,0.476-6.084,8.358-7.266,8.867c-0.861,0.37-0.697,0.767-0.526,4.108
		c7.375-5.028,7.38-5.032,7.38-5.032S254.397,203.372,257.937,201.855z"/>
	<path fill="#47814D" d="M386.445,177.64l-2.072,0.39c0,0-2.228,0.604-8.598,1.987c-6.371,1.383-14.835,6.759-14.835,6.759
		s0,0,1.466,0.666c1.466,0.666,4.655,0.974,4.655,0.974s0,0-2.558,0.834c-2.558,0.834-11.007,0.607-11.007,0.607s0,0-6.098,4.359
		c-6.098,4.359-16.611,16.131-16.611,16.131s0.126,1.381,3.443,3.078c3.316,1.697,10.866,3.607,10.866,3.607
		s-3.621,0.731-8.185,0.749c-4.564,0.018-12.023-0.9-12.023-0.9s-6.055,6.755-9.346,11.084c-3.292,4.329-4.337,10.172-4.265,10.966
		c0.073,0.794,1.684,3.047,2.747,3.149c1.063,0.103,4.876-0.446,9.255,1.353c4.379,1.8,13.754,2.542,13.754,2.542
		s-3.878,1.755-8.754,2.201c-4.876,0.446-16.167-0.121-16.167-0.121s0.491,14.958-0.735,22.672
		c-0.274,1.722-0.858,3.786-1.586,5.945c10.395,0.804,19.625,0.787,26.674-0.455c6.187-1.091,13.207-2.908,20.792-5.217
		c8.895-27.331,10.741-57.486,12.386-67.818C371.872,189.176,386.445,177.64,386.445,177.64z"/>
	<path fill="#47814D" d="M215.588,258.29c-11.045-1.188-18.61-11.223-19.809-12.908c-0.17,0.18-0.327,0.347-0.491,0.522
		c-0.324,1.018-0.834,3.18-1.168,7.283c7.549,2.109,23.958,6.563,43.442,11.074C230.89,261.04,223.675,259.159,215.588,258.29z"/>
	<path fill="#47814D" d="M243.558,228.124c0,0,0,0,4.814-3.041c4.814-3.041,20.323-15.863,20.323-15.863s-0.588,1.254-3.551,5.326
		s-19.974,25.433-19.974,25.433l3.644,24.472c0,0,1.398,1.407,3.251,3.04c6.506,1.389,13.177,2.728,19.834,3.946
		c5.104-5.005,12.048-12.602,12.048-12.602s-1.175,2.508-6.827,9.827c-0.834,1.08-1.693,2.174-2.552,3.256
		c9.782,1.742,19.476,3.199,28.506,4.143c5.567-17.349,0.733-36.484-6.348-61.804c-2.157-7.715-5.583-15.87-9.451-23.824
		c-0.997,0.576-1.775,1.054-1.775,1.054h-4.299c0,0,1.528-3.331,3.347-6.497c-1.17-2.271-2.359-4.511-3.552-6.707
		c-10.145,11.075-21.152,22.754-23.059,23.572c-3.54,1.517-8.597-5.563-8.597-5.563s-0.005,0.004-7.38,5.032
		c0.064,1.249,0.129,2.898,0.142,5.13C242.149,214.65,243.558,228.124,243.558,228.124z"/>
	<path fill="#47814D" d="M285.499,191.487c0,0,0.778-0.478,1.775-1.054c-0.889-1.828-1.8-3.644-2.727-5.443
		c-1.82,3.166-3.347,6.497-3.347,6.497H285.499z"/>
	<path fill="#47814D" d="M231.172,209.692c-1.106-1.861-2.433-4.228-4.015-7.272c-5.755-11.076-2.439-18.981-2.439-18.981
		s0.574,4.348,1.887,11.03c0.871,4.431,4.68,9.81,7.153,12.94c0.698-0.601,1.369-1.168,1.988-1.668
		c-0.117-2.966-0.255-7.017-0.307-10.68c-0.095-6.793,1.519-17.943,1.519-17.943s-0.787-0.928-3.255-8.704
		c-2.468-7.776,1.932-19.181,1.932-19.181s0.022,5.999-0.202,11.221c-0.225,5.222,2.025,10.617,2.025,10.617
		s3.025-11.079,6.271-23.579c3.246-12.5,14.249-28.51,14.249-28.51s-1.027,0.294-7.281,4.867
		c-6.254,4.573-14.457,14.726-23.772,29.981c-9.316,15.256-14.524,38.937-14.524,38.937c-3.361,14.26-4.087,29.067-4.066,39.454
		C216.047,224.253,224.675,215.573,231.172,209.692z"/>
	<path fill="#47814D" d="M235.931,210.018c0,0-0.084-1.744-0.184-4.278c-0.619,0.501-1.291,1.067-1.988,1.668
		C235.014,208.998,235.931,210.018,235.931,210.018z"/>
	<path fill="#47814D" d="M216.208,251.631c5.323,2.514,5.286,2.117,7.082,2.553c1.796,0.436,5.148,2.529,7.412,2.322
		c2.264-0.207,5.791,1.871,5.791,1.871s-2.05-3.213-4.165-5.22c-2.115-2.007-3.432-4.887-5.526-10.497
		c-2.094-5.61-1.539-11.061-1.539-11.061s2.936,7.133,6.183,13.837c3.248,6.704,7.671,10.901,7.671,10.901s-1.1-10.102-1.699-16.648
		c-0.599-6.547-2.004-23.822-2.004-23.822s-1.323-1.267-4.24-6.175c-6.498,5.882-15.125,14.561-22.837,22.529
		c0.017,8.377,0.518,13.882,0.518,13.882S210.885,249.118,216.208,251.631z"/>
	<path fill="#47814D" d="M337.223,175.143c-14.621,3.338-37.364,19.623-37.364,19.623s1.06,3.904,1.223,5.689
		c0.163,1.785,3.473,11.085,4.315,12.608c0.842,1.523,2.693,12.156,3.252,12.505l0.78-1.072c0,0,0.319-8.031,1.294-12.721
		c0.976-4.69,4.008-13.77,6.888-16.834c2.88-3.064,2.888-1.064,2.888-1.064s-2.478,3.627-5.536,10.509
		c-3.058,6.881-1.773,15.165-1.773,15.165s2.917-2.667,5.605-5.914c2.688-3.247,13.557-13.043,13.557-13.043s2.177-5,5.097-11.469
		c2.92-6.469,11.749-9.777,11.749-9.777s-5.357,4.791-7.315,7.371c-1.959,2.58-3.907,8.159-3.907,8.159s15.745-10.243,23.309-13.936
		c7.564-3.693,19.515-3.586,20.56-3.682c1.045-0.096,1.834-1.068,1.834-1.068s-8.383-3.334-14.239-3.998
		C363.584,171.53,351.844,171.805,337.223,175.143z"/>
	<path fill="#FFFFFF" d="M441.772,83.512c0,0-30.85,35.654-30.85,37.172s4.046,1.517,5.057,3.54
		c1.011,2.023,0.253,3.793-3.287,6.069c-3.54,2.276-14.666,11.885-15.425,14.161s-0.759,9.609-2.782,12.391
		c-2.023,2.782-3.793,5.055-4.299,6.321s-3.54,5.059-3.54,8.346c0,3.287,1.77,5.563,0,6.575s-3.54,3.793-5.563,5.563
		c-2.023,1.77-5.563,2.276-7.08,7.08s0,8.092,0,8.092s12.391-9.609,13.402-9.609s4.046,0.759,4.046,3.034s1.011,5.816-1.011,9.103
		c-2.023,3.287-5.563,7.08-6.322,9.103c-0.759,2.023,0,6.827,0,6.827h2.276c0,0-0.506-2.023,3.287-6.575
		c3.793-4.552,1.77-6.322,6.827-5.563s9.946,7.333,11.042,3.287c1.096-4.046,0.084-6.322,2.36-11.126
		c2.276-4.804,2.023-6.827,7.586-9.862c5.563-3.034,9.862-6.322,12.138-6.575s7.333,1.264,5.057-1.264s-3.54-5.057-6.827-3.793
		s-5.31,1.264-6.575-2.276c-1.264-3.54-3.034-4.046-4.552-6.322c-1.517-2.276-2.023-6.069-1.77-10.115
		c0.253-4.046,3.793-7.333,4.552-8.092s9.356-9.862,12.138-14.161c2.782-4.299,3.793-4.299,1.517-7.08
		c-2.276-2.782-5.057-2.529-3.54-4.804c1.517-2.276,2.529-13.402,2.529-15.425c0-2.023-0.759-1.011,2.529-5.563
		s7.08-5.31,7.08-11.885S441.772,83.512,441.772,83.512z"/>
	<path fill="#FFFFFF" d="M527.242,161.143c0,0-23.264,13.655-28.068,13.655s-8.598-4.046-10.873-4.046
		c-2.276,0-8.092,3.034-11.632,4.046s-3.54-8.345-6.575,0c-3.034,8.345-2.529,10.873-1.77,11.632s2.782,2.529,6.575,1.517
		s7.586-2.782,9.103-1.011s4.046,1.77,1.011,6.069c-3.034,4.299-8.345,11.632-10.115,14.413c-1.77,2.782-0.506,3.793-5.057,5.31
		c-4.552,1.517-3.54-0.253-10.368,2.023c-6.827,2.276-9.103,0.759-9.609,2.529s-0.253,1.77,3.793,4.299
		c4.046,2.529,4.552,1.011,7.08,4.805s5.563,4.299,8.85,3.034s10.62-6.322,13.402-7.839c2.782-1.517,6.13-1.264,5.467-5.563
		c-0.663-4.299-1.866-4.046,0-8.345c1.866-4.299,1.613-5.31,5.153-6.322c3.54-1.011,12.138-5.057,14.161-8.092
		s1.77-5.563,1.77-7.839c0-2.276,0.253-6.575,5.816-6.827c5.563-0.253,7.586,0.759,9.103,0s-0.759-6.827,0.759-11.126
		C526.736,163.166,527.242,161.143,527.242,161.143z"/>
	<path fill="#FFFFFF" d="M588.183,193.51v-2.023c0,0-9.103,3.149-10.368,4.103s-2.023,0.954-4.552,1.713s-7.586,1.77-9.356,2.782
		s-5.31,5.31-7.333,7.08c-2.023,1.77-4.299,6.575-5.057,8.092s-1.011,5.563-3.54,6.575c-2.529,1.011-7.586,5.31-9.103,6.322
		s-2.782,4.022,4.299,1.885s13.402-10.988,17.195-12.758s7.08-0.253,9.103-2.023s3.54-6.827,6.322-7.839s6.322-2.023,8.85-2.782
		s6.322-0.759,7.839-0.253s0.253-1.77,0-2.782s-1.517-2.276-1.264-3.287s-0.506-2.724-0.506-2.724L588.183,193.51z"/>
	<path fill="#FFFFFF" d="M248.075,211.137c-1.264-0.685-7.08-1.844-9.356,0c-2.276,1.844-3.54,5.131-6.575,6.142
		s-6.827,4.552-6.827,4.552s6.069-1.264,7.333-1.77s3.287-4.607,6.069-4.074c2.782,0.534,0.759,1.236,4.299,0
		s5.057-0.151,5.057-2.501S248.075,211.137,248.075,211.137z"/>
	<path fill="#623D18" d="M193.447,264.26c0,0,99.892,46.328,155.523,34.19c55.631-12.138,138.572-51.585,174.985-49.056
		s80.117,21.151,96.596,23.787c22.252,3.56,49.056-11.941,49.056-11.941s-68.527,125.209-230.11,132.795
		c-134.01,6.292-160.066-21.747-193.697-46.022S193.447,264.26,193.447,264.26z"/>
	<path fill="#47814D" d="M309.79,276.673c-2.536,7.513-6.92,16.238-6.92,16.238s0,0,1.604,0.253
		c1.604,0.253,12.967,1.614,12.967,1.614s-1.357,0.524-9.367,1.257c-8.011,0.733-7.093-0.751-7.093-0.751s-2.394,2.62-5.046,6.263
		s-10.898,11.4-12.2,12.519c-1.302,1.119-0.512-1.754-0.512-1.754s12.864-16.781,19.313-34.574c0.201-0.556,0.359-1.118,0.538-1.677
		c-9.03-0.944-18.724-2.401-28.506-4.143c-4.963,6.254-9.916,12.088-9.916,12.088s0,0,1.052,1.904
		c1.052,1.904,4.754,13.568,5.621,17.289c0.867,3.721-2.299,9.412-2.299,9.412s-2.668-19.56-5.147-25.534
		c-2.478-5.974-7.598-10.107-16.839-17.063c-3.044-2.291-6.201-4.172-9.479-5.754c-19.484-4.511-35.893-8.966-43.442-11.074
		c-0.067,0.818-0.127,1.703-0.177,2.683c-0.438,8.642-0.518,15.451,2.378,25.988c2.896,10.537,14.315,31.697,17.2,34.433
		c2.884,2.737,8.425,7.631,8.762,9.4c0.338,1.77,3.675-0.136,3.675-0.136s0.225,4.38,18.362,4.921
		c18.137,0.541,22.889-5.095,22.889-5.095s5.558,5.092,24.043,5.601c18.485,0.509,33.49-2.465,53.533-32.905
		c5.259-7.987,9.307-17.355,12.47-27.076c-7.584,2.309-14.605,4.127-20.792,5.217C329.416,277.46,320.185,277.476,309.79,276.673z"
		/>
</g>
<path fill="#2A160C" d="M1389.236,313.676c11.09-4.033,34.784-57.095,39.321-60.12s-2.016-7.571,11.09-12.613
	c13.107-5.041,26.214-42.345,33.271-47.386c7.058-5.041-15.123,4.033,29.238,9.074c0,0,6.553-1.512,13.107-7.058
	c6.553-5.545,57.973-72.088,65.03-79.145c7.058-7.058,7.058-7.058,7.058-7.058s8.066,6.553,18.148,13.107
	c10.082,6.553,7.058,10.082,10.082,6.553s41.841-44.866,41.841-44.866s33.775,38.817,51.923,65.03
	c18.148,26.214,32.767,45.874,34.28,46.126c1.512,0.252,8.57-2.773,14.619-7.31s8.57-12.099,12.099-4.537
	c3.529,7.562,33.271,37.808,36.8,39.825c3.529,2.016,1.512,4.033,12.099,5.041s11.594-1.512,22.685,3.529
	s39.321,35.792,56.46,44.362s39.295,19.66,39.295,19.66s-63.308-1.362-107.165,4.688c-43.858,6.049-59.422-19.307-106.176-48.041
	s-69.44-39.321-98.174-27.222c-28.734,12.099-107.376,36.296-148.209,46.882S1389.236,313.676,1389.236,313.676z"/>
<path fill="#FFFFFF" stroke="#FFFFFF" stroke-width="1.9916" stroke-miterlimit="10" d="M1509.122,195.547
	c1.71-0.733,4.887,0.733,4.887,0.733s4.153,0.489,4.153-0.489c0-0.977-0.977-2.688-1.71-4.642c-0.733-1.955,1.222-4.154,1.466-4.398
	c0.244-0.244-4.642-0.489-0.489-3.176c4.154-2.688,4.642-1.466,4.642-3.909c0-2.443-1.71-4.398-1.71-4.398
	s-12.705,10.262-15.148,13.682c-0.633,0.886-1.282,1.937-1.897,3.007c0.895,1.738,1.776,3.493,2.635,5.259
	C1506.975,196.624,1508.241,195.925,1509.122,195.547z"/>
<path fill="#FFFFFF" stroke="#FFFFFF" stroke-width="1.9916" stroke-miterlimit="10" d="M1655.23,93.906
	c0,0-29.808,34.45-29.808,35.916s3.909,1.466,4.886,3.421c0.977,1.955,0.244,3.665-3.176,5.864
	c-3.421,2.199-14.171,11.483-14.904,13.682c-0.733,2.199-0.733,9.284-2.688,11.972c-1.955,2.688-3.665,4.884-4.154,6.107
	c-0.489,1.223-3.421,4.888-3.421,8.064s1.71,5.375,0,6.353c-1.71,0.977-3.421,3.665-5.375,5.375
	c-1.955,1.71-5.375,2.199-6.841,6.841c-1.466,4.642,0,7.819,0,7.819s11.972-9.284,12.949-9.284s3.909,0.733,3.909,2.932
	s0.977,5.62-0.977,8.796s-5.375,6.841-6.108,8.796c-0.733,1.955,0,6.597,0,6.597h2.199c0,0-0.489-1.955,3.176-6.353
	c3.665-4.398,1.71-6.108,6.597-5.375s9.61,7.086,10.669,3.176c1.059-3.909,0.082-6.108,2.28-10.75
	c2.199-4.642,1.955-6.597,7.33-9.529c5.375-2.932,9.529-6.108,11.728-6.353c2.199-0.244,7.086,1.222,4.887-1.222
	s-3.421-4.887-6.597-3.665c-3.176,1.222-5.131,1.222-6.353-2.199c-1.222-3.421-2.932-3.909-4.398-6.108
	c-1.466-2.199-1.955-5.864-1.71-9.773c0.244-3.909,3.665-7.086,4.398-7.819s9.04-9.529,11.728-13.682s3.665-4.154,1.466-6.841
	c-2.199-2.688-4.887-2.443-3.421-4.642c1.466-2.199,2.443-12.949,2.443-14.904c0-1.955-0.733-0.977,2.443-5.375
	s6.841-5.131,6.841-11.483C1655.23,93.906,1655.23,93.906,1655.23,93.906z"/>
<path fill="#FFFFFF" stroke="#FFFFFF" stroke-width="1.377" stroke-miterlimit="10" d="M1515.476,207.53
	c0,0-15.542,9.122-18.751,9.122s-5.744-2.703-7.264-2.703s-5.406,2.027-7.771,2.703c-2.365,0.676-2.365-5.575-4.392,0
	c-2.027,5.575-1.689,7.264-1.182,7.771c0.507,0.507,1.858,1.689,4.392,1.014c2.534-0.676,5.068-1.858,6.082-0.676
	c1.014,1.183,2.703,1.183,0.676,4.054c-2.027,2.872-5.575,7.771-6.757,9.629c-1.182,1.858-0.338,2.534-3.379,3.548
	c-3.041,1.014-2.365-0.169-6.926,1.351s-6.082,0.507-6.419,1.689s-0.169,1.183,2.534,2.872c2.703,1.689,3.041,0.676,4.73,3.21
	c1.689,2.534,3.717,2.872,5.913,2.027c2.196-0.845,7.095-4.223,8.953-5.237s4.095-0.845,3.652-3.717
	c-0.443-2.872-1.247-2.703,0-5.575s1.078-3.548,3.443-4.223c2.365-0.676,8.109-3.379,9.46-5.406
	c1.351-2.027,1.183-3.717,1.183-5.237c0-1.52,0.169-4.392,3.885-4.561s5.068,0.507,6.082,0s-0.507-4.561,0.507-7.433
	C1515.138,208.881,1515.476,207.53,1515.476,207.53z"/>
<path fill="#FFFFFF" stroke="#FFFFFF" stroke-width="1.9916" stroke-miterlimit="10" d="M1766.346,206.124v-1.955
	c0,0-8.796,3.043-10.017,3.965c-1.222,0.922-1.955,0.922-4.398,1.655c-2.443,0.733-7.33,1.71-9.04,2.688
	c-1.71,0.977-5.131,5.131-7.086,6.841c-1.955,1.71-4.154,6.353-4.887,7.818c-0.733,1.466-0.977,5.375-3.421,6.353
	s-7.33,5.131-8.796,6.108c-1.466,0.977-2.688,3.887,4.154,1.821s12.949-10.617,16.614-12.327c3.665-1.71,6.841-0.244,8.796-1.955
	c1.955-1.71,3.421-6.597,6.108-7.574s6.108-1.955,8.552-2.688c2.443-0.733,6.108-0.733,7.574-0.244c1.466,0.489,0.244-1.71,0-2.688
	c-0.244-0.977-1.466-2.199-1.222-3.176c0.244-0.977-0.489-2.632-0.489-2.632L1766.346,206.124z"/>
<g>
	<path fill="#376B09" d="M1396.284,364.624c-2.357,0.337-5.791,0.876-13.063,0.876c-8.687,0-16.363-2.223-16.363-14.478v-22.356
		c0-12.255,7.744-14.41,16.43-14.41c7.272,0,10.639,0.539,12.996,0.876c0.942,0.135,1.347,0.471,1.347,1.347v6.262
		c0,0.741-0.606,1.347-1.347,1.347h-13.669c-3.165,0-4.31,1.078-4.31,4.579v6.128h17.44c0.74,0,1.347,0.606,1.347,1.347v6.397
		c0,0.74-0.606,1.347-1.347,1.347h-17.44v7.138c0,3.501,1.145,4.578,4.31,4.578h13.669c0.741,0,1.347,0.606,1.347,1.348v6.262
		C1397.631,364.086,1397.227,364.489,1396.284,364.624z"/>
	<path fill="#376B09" d="M1433.787,364.624c-2.222,0.472-7.407,0.876-10.976,0.876c-8.687,0-16.431-2.223-16.431-14.478v-34.813
		c0-0.741,0.606-1.347,1.347-1.347h8.821c0.741,0,1.347,0.605,1.347,1.347v34.813c0,3.501,1.145,4.578,4.31,4.578h11.582
		c0.741,0,1.347,0.606,1.347,1.348v6.262C1435.133,364.086,1434.73,364.422,1433.787,364.624z"/>
	<path fill="#376B09" d="M1474.927,324.828c-0.067,0-0.135,0-0.202,0c-3.232-0.135-8.282-0.539-14.006-0.539
		c-5.455,0-8.821,2.626-8.821,11.447v8.417c0,9.293,4.242,11.447,7.542,11.447c1.885,0,3.569-0.066,5.185-0.201v-15.488
		c0-0.74,0.539-1.347,1.28-1.347h8.619c0.741,0,1.347,0.606,1.347,1.347v22.626c0,0.942-0.337,1.347-1.347,1.549
		c-3.636,0.74-8.35,1.414-15.083,1.414c-7.677,0-19.191-4.377-19.191-21.414v-8.35c0-17.171,10.707-21.48,20.471-21.48
		c6.733,0,11.582,1.011,14.073,1.549c0.673,0.135,1.145,0.404,1.145,1.01v7.138C1475.937,324.693,1475.533,324.828,1474.927,324.828
		z"/>
	<path fill="#376B09" d="M1504.08,365.5c-11.11,0-19.932-5.993-19.932-21.615v-8.014c0-15.622,8.821-21.615,19.932-21.615
		c11.111,0,19.932,5.993,19.932,21.615v8.014C1524.012,359.507,1515.191,365.5,1504.08,365.5z M1512.43,335.871
		c0-8.08-2.694-11.515-8.35-11.515s-8.282,3.435-8.282,11.515v8.014c0,8.08,2.626,11.515,8.282,11.515s8.35-3.435,8.35-11.515
		V335.871z"/>
	<path fill="#376B09" d="M1569.595,364.894h-6.599c-1.414,0-2.424-0.27-3.501-2.088l-15.353-26.53
		c-0.269-0.404-0.404-0.539-0.606-0.539s-0.336,0.135-0.336,0.539v27.271c0,0.74-0.606,1.347-1.347,1.347h-7.946
		c-0.741,0-1.347-0.606-1.347-1.347v-46.126c0-1.414,1.145-2.559,2.559-2.559h6.801c1.347,0,2.021,0.673,2.828,2.087l15.959,27.743
		c0.27,0.404,0.337,0.539,0.539,0.539c0.135,0,0.337-0.135,0.337-0.606v-28.483c0-0.741,0.606-1.279,1.347-1.279h7.946
		c0.741,0,1.347,0.538,1.347,1.279v46.193C1572.221,363.749,1571.009,364.894,1569.595,364.894z"/>
	<path fill="#376B09" d="M1613.629,324.356h-10.909v39.19c0,0.74-0.606,1.347-1.347,1.347h-8.821c-0.741,0-1.347-0.606-1.347-1.347
		v-39.19h-10.976c-0.741,0-1.347-0.538-1.347-1.279v-6.936c0-0.741,0.606-1.279,1.347-1.279h33.399c0.741,0,1.414,0.538,1.414,1.279
		v6.936C1615.043,323.818,1614.369,324.356,1613.629,324.356z"/>
	<path fill="#376B09" d="M1631.941,364.894h-9.023c-0.741,0-1.212-0.606-1.212-1.347v-47.405c0-0.741,0.472-1.279,1.212-1.279h9.023
		c0.741,0,1.279,0.538,1.279,1.279v47.405C1633.22,364.287,1632.681,364.894,1631.941,364.894z"/>
	<path fill="#376B09" d="M1659.749,347.386c-1.616,0-3.771-0.135-5.454-0.202v16.363c0,0.74-0.606,1.347-1.348,1.347h-8.686
		c-0.741,0-1.348-0.539-1.348-1.279v-45.251c0-2.289,0.943-2.896,3.03-3.231c3.435-0.539,8.821-0.876,13.67-0.876
		c10.168,0,20.201,3.569,20.201,16.229v0.606C1679.816,343.683,1669.782,347.386,1659.749,347.386z M1668.368,330.484
		c0-4.781-2.963-6.666-8.619-6.666c-0.943,0-4.646,0.134-5.454,0.201v13.737c0.74,0.067,4.713,0.135,5.454,0.135
		c5.993,0,8.619-2.223,8.619-6.801V330.484z"/>
</g>
<g>
	<path fill="#623D18" d="M1725.546,364.356c-1.414,0.472-5.319,1.146-10.033,1.146c-10.234,0-19.932-5.388-19.932-21.414v-8.484
		c0-16.025,9.697-21.346,19.932-21.346c4.714,0,8.619,0.674,10.033,1.145c0.943,0.27,1.481,0.539,1.481,1.481v6.532
		c0,0.808-0.403,1.347-1.279,1.347c-0.067,0-0.135,0-0.202,0c-2.559-0.202-6.262-0.539-9.966-0.539c-4.646,0-8.35,2.425-8.35,11.38
		v8.484c0,8.956,3.704,11.381,8.35,11.381c3.704,0,7.407-0.337,9.966-0.539c0.067,0,0.135,0,0.202,0
		c0.876,0,1.279,0.539,1.279,1.347v6.531C1727.027,363.751,1726.489,364.088,1725.546,364.356z"/>
	<path fill="#623D18" d="M1753.556,365.502c-11.111,0-19.933-5.993-19.933-21.615v-8.014c0-15.622,8.821-21.615,19.933-21.615
		c11.11,0,19.932,5.993,19.932,21.615v8.014C1773.487,359.509,1764.666,365.502,1753.556,365.502z M1761.905,335.873
		c0-8.08-2.693-11.515-8.35-11.515s-8.283,3.435-8.283,11.515v8.014c0,8.08,2.627,11.515,8.283,11.515s8.35-3.435,8.35-11.515
		V335.873z"/>
	<path fill="#623D18" d="M1811.259,324.156h-13.669c-3.165,0-4.31,1.078-4.31,4.579v6.061h17.44c0.74,0,1.347,0.606,1.347,1.347
		v6.397c0,0.74-0.606,1.347-1.347,1.347h-17.44v19.662c0,0.74-0.606,1.347-1.347,1.347h-8.754c-0.741,0-1.347-0.606-1.347-1.347
		v-34.813c0-12.255,7.743-14.41,16.43-14.41c7.272,0,10.64,0.539,12.996,0.876c0.943,0.134,1.347,0.471,1.347,1.347v6.262
		C1812.606,323.551,1812,324.156,1811.259,324.156z"/>
	<path fill="#623D18" d="M1850.648,324.156h-13.669c-3.165,0-4.31,1.078-4.31,4.579v6.061h17.44c0.74,0,1.347,0.606,1.347,1.347
		v6.397c0,0.74-0.606,1.347-1.347,1.347h-17.44v19.662c0,0.74-0.606,1.347-1.347,1.347h-8.754c-0.741,0-1.347-0.606-1.347-1.347
		v-34.813c0-12.255,7.743-14.41,16.43-14.41c7.272,0,10.64,0.539,12.996,0.876c0.943,0.134,1.347,0.471,1.347,1.347v6.262
		C1851.994,323.551,1851.389,324.156,1850.648,324.156z"/>
	<path fill="#623D18" d="M1890.036,364.626c-2.356,0.337-5.791,0.876-13.063,0.876c-8.686,0-16.362-2.223-16.362-14.478v-22.356
		c0-12.255,7.743-14.41,16.43-14.41c7.272,0,10.64,0.539,12.996,0.876c0.943,0.135,1.347,0.471,1.347,1.347v6.262
		c0,0.741-0.605,1.347-1.347,1.347h-13.669c-3.165,0-4.31,1.078-4.31,4.579v6.128h17.44c0.74,0,1.347,0.606,1.347,1.347v6.397
		c0,0.74-0.606,1.347-1.347,1.347h-17.44v7.138c0,3.501,1.145,4.578,4.31,4.578h13.669c0.741,0,1.347,0.606,1.347,1.348v6.262
		C1891.383,364.088,1890.98,364.491,1890.036,364.626z"/>
	<path fill="#623D18" d="M1929.358,364.626c-2.356,0.337-5.791,0.876-13.063,0.876c-8.686,0-16.362-2.223-16.362-14.478v-22.356
		c0-12.255,7.743-14.41,16.43-14.41c7.272,0,10.64,0.539,12.996,0.876c0.943,0.135,1.347,0.471,1.347,1.347v6.262
		c0,0.741-0.605,1.347-1.347,1.347h-13.669c-3.165,0-4.31,1.078-4.31,4.579v6.128h17.44c0.74,0,1.347,0.606,1.347,1.347v6.397
		c0,0.74-0.606,1.347-1.347,1.347h-17.44v7.138c0,3.501,1.145,4.578,4.31,4.578h13.669c0.741,0,1.347,0.606,1.347,1.348v6.262
		C1930.704,364.088,1930.301,364.491,1929.358,364.626z"/>
</g>
<g>
	<path fill="#623D18" stroke="#FFFFFF" stroke-width="1.8386" stroke-miterlimit="10" d="M1550.174,220.849
		c0,0,21.168,36.361,29.365,41.539c8.197,5.178,13.654,21.356,33.125,25.344s19.471,3.988,19.471,3.988s-47.386,24.887-78.602-8.76
		c-13.41-14.454-14.687-31.741-14.186-38.947C1541.763,209.293,1550.174,220.849,1550.174,220.849z"/>
	<path fill="#623D18" stroke="#FFFFFF" stroke-width="1.8386" stroke-miterlimit="10" d="M1553.026,211.393
		c0,0,9.223,3.055,15.891,8.127c6.669,5.072,20.907,33.805,27.351,42.105c6.444,8.3,23.687,22.226,29.974,23.321
		c6.287,1.096,11.642-12.794,8.171-25.982c-3.471-13.187-22.871-46.573-49.548-51.062
		C1558.189,203.414,1553.026,211.393,1553.026,211.393z"/>
</g>
<path fill="#A8CE72" stroke="#FFFFFF" stroke-width="1.8386" stroke-miterlimit="10" d="M1682.666,139.416
	c0,0-10.277,19.475-21.062,30.343c-10.785,10.868-28.621,14.844-27.916,33.538s13.952,43.887,13.952,43.887
	s2.293-21.926,19.309-33.029c17.016-11.103,26.595-19.907,28.773-30.266c2.178-10.36,0.035-18.538-3.862-29.402
	C1687.964,143.621,1682.666,139.416,1682.666,139.416z"/>
<path fill="#234718" stroke="#FFFFFF" stroke-width="1.8386" stroke-miterlimit="10" d="M1724.617,171.419
	c0,0-14.618,20.074-26.951,24.468s-26.021,17.987-33.779,32.83c-7.758,14.843-14.01,29.808-16.059,43.26
	c-2.049,13.451-2.049,13.451-2.049,13.451s25.623-22.429,32.53-26.386c6.907-3.956,28.021-8.016,35.881-38.044
	S1724.617,171.419,1724.617,171.419z"/>
<path fill="#0A1A08" stroke="#FFFFFF" stroke-width="1.8386" stroke-miterlimit="10" d="M1623.951,198.158
	c0,0,4.329,27.182,11.341,37.929c7.012,10.747,12.818,23.559,7.603,41.007c-5.215,17.448-4.338,21.496-4.338,21.496
	s-13.402-32.811-17.776-37.665c-4.374-4.855-6.206-14.513-4.145-27.988C1618.698,219.461,1623.951,198.158,1623.951,198.158z"/>
<path fill="#2A160C" d="M1529.461,1758.393c7.02-2.553,22.017-36.14,24.889-38.055s-1.276-4.793,7.02-7.984
	c8.297-3.191,16.593-26.804,21.06-29.995s-9.573,2.553,18.507,5.744c0,0,4.148-0.957,8.296-4.467s36.696-45.63,41.163-50.098
	s4.467-4.467,4.467-4.467s5.105,4.148,11.487,8.296s4.467,6.382,6.382,4.148s26.485-28.399,26.485-28.399
	s21.379,24.57,32.866,41.163c11.487,16.593,20.741,29.037,21.698,29.197c0.957,0.16,5.425-1.755,9.254-4.627
	s5.425-7.658,7.658-2.872s21.06,23.932,23.294,25.208s0.957,2.553,7.658,3.191s7.339-0.957,14.359,2.234
	c7.02,3.191,24.889,22.656,35.738,28.08s24.873,12.445,24.873,12.445s-40.073-0.862-67.833,2.967s-37.613-12.221-67.207-30.409
	c-29.595-18.188-43.954-24.889-62.142-17.231c-18.188,7.658-67.967,22.975-93.813,29.676
	C1559.775,1738.839,1529.461,1758.393,1529.461,1758.393z"/>
<path fill="#FFFFFF" stroke="#FFFFFF" stroke-width="1.2606" stroke-miterlimit="10" d="M1605.347,1683.62
	c1.083-0.464,3.093,0.464,3.093,0.464s2.629,0.309,2.629-0.309c0-0.619-0.619-1.701-1.083-2.938
	c-0.464-1.237,0.773-2.629,0.928-2.784c0.155-0.155-2.938-0.309-0.309-2.01s2.938-0.928,2.938-2.474s-1.083-2.784-1.083-2.784
	s-8.042,6.496-9.589,8.661c-0.401,0.561-0.811,1.226-1.201,1.903c0.567,1.1,1.124,2.211,1.668,3.329
	C1603.988,1684.301,1604.789,1683.859,1605.347,1683.62z"/>
<path fill="#FFFFFF" stroke="#FFFFFF" stroke-width="1.2606" stroke-miterlimit="10" d="M1697.83,1619.283
	c0,0-18.868,21.806-18.868,22.734c0,0.928,2.474,0.928,3.093,2.165c0.619,1.237,0.155,2.32-2.01,3.712
	c-2.165,1.392-8.97,7.269-9.434,8.661c-0.464,1.392-0.464,5.877-1.701,7.578c-1.237,1.701-2.32,3.092-2.629,3.866
	c-0.309,0.774-2.165,3.094-2.165,5.104c0,2.011,1.083,3.402,0,4.021c-1.083,0.619-2.165,2.32-3.402,3.402
	c-1.237,1.083-3.402,1.392-4.33,4.33c-0.928,2.938,0,4.949,0,4.949s7.578-5.877,8.197-5.877c0.619,0,2.474,0.464,2.474,1.856
	s0.619,3.557-0.619,5.568c-1.237,2.01-3.402,4.33-3.866,5.568c-0.464,1.237,0,4.176,0,4.176h1.392c0,0-0.309-1.237,2.01-4.021
	s1.083-3.866,4.176-3.402c3.093,0.464,6.083,4.485,6.753,2.01s0.052-3.866,1.443-6.805c1.392-2.938,1.237-4.176,4.64-6.032
	c3.402-1.856,6.031-3.866,7.423-4.021c1.392-0.155,4.485,0.773,3.093-0.773c-1.392-1.547-2.165-3.093-4.176-2.32
	c-2.01,0.773-3.248,0.773-4.021-1.392s-1.856-2.474-2.784-3.866c-0.928-1.392-1.237-3.712-1.083-6.186
	c0.155-2.474,2.32-4.485,2.784-4.949c0.464-0.464,5.722-6.031,7.423-8.661s2.32-2.629,0.928-4.33
	c-1.392-1.701-3.093-1.547-2.165-2.938c0.928-1.392,1.547-8.197,1.547-9.434s-0.464-0.619,1.547-3.402
	c2.011-2.784,4.33-3.248,4.33-7.269C1697.83,1619.283,1697.83,1619.283,1697.83,1619.283z"/>
<path fill="#FFFFFF" stroke="#FFFFFF" stroke-width="0.8716" stroke-miterlimit="10" d="M1609.369,1691.205
	c0,0-9.838,5.774-11.869,5.774c-2.032,0-3.636-1.711-4.598-1.711c-0.962,0-3.422,1.283-4.919,1.711c-1.497,0.428-1.497-3.529-2.78,0
	c-1.283,3.529-1.069,4.598-0.749,4.919c0.321,0.321,1.176,1.069,2.78,0.641c1.604-0.428,3.208-1.176,3.849-0.428
	c0.642,0.748,1.711,0.748,0.428,2.566c-1.283,1.818-3.529,4.919-4.277,6.095c-0.749,1.176-0.214,1.604-2.139,2.245
	c-1.925,0.642-1.497-0.107-4.384,0.855s-3.849,0.321-4.063,1.069s-0.107,0.749,1.604,1.818c1.711,1.069,1.925,0.428,2.994,2.032
	c1.069,1.604,2.352,1.818,3.743,1.283c1.39-0.535,4.491-2.673,5.667-3.315s2.592-0.535,2.312-2.352c-0.28-1.818-0.789-1.711,0-3.529
	c0.789-1.818,0.682-2.246,2.179-2.673s5.133-2.139,5.988-3.422c0.855-1.283,0.748-2.353,0.748-3.315c0-0.962,0.107-2.78,2.459-2.887
	c2.352-0.107,3.208,0.321,3.849,0s-0.321-2.887,0.321-4.705C1609.155,1692.06,1609.369,1691.205,1609.369,1691.205z"/>
<path fill="#FFFFFF" stroke="#FFFFFF" stroke-width="1.2606" stroke-miterlimit="10" d="M1768.165,1690.315v-1.237
	c0,0-5.568,1.926-6.341,2.51c-0.773,0.583-1.237,0.583-2.784,1.047c-1.547,0.464-4.64,1.083-5.722,1.701
	c-1.083,0.619-3.248,3.248-4.485,4.33c-1.237,1.083-2.629,4.021-3.093,4.949s-0.619,3.402-2.165,4.021
	c-1.547,0.619-4.64,3.248-5.568,3.866c-0.928,0.619-1.701,2.46,2.629,1.153s8.197-6.72,10.517-7.803
	c2.32-1.083,4.33-0.155,5.568-1.237c1.237-1.083,2.165-4.176,3.866-4.794s3.866-1.237,5.413-1.701
	c1.547-0.464,3.866-0.464,4.794-0.155c0.928,0.309,0.155-1.083,0-1.701c-0.155-0.619-0.928-1.392-0.773-2.011
	c0.155-0.619-0.309-1.666-0.309-1.666L1768.165,1690.315z"/>
<path fill="none" stroke="#757575" stroke-width="10.8813" stroke-miterlimit="10" d="M-32.537,1390.592
	c-8.463-119.081,84.72-200.579,180.907-207.222c120.143-8.297,211.333,76.529,218.964,189.152"/>
<path fill="none" stroke="#623D18" stroke-width="12.3228" stroke-miterlimit="10" d="M-16.756,1450.138"/>
<path fill="none" stroke="#623D18" stroke-width="12.6949" stroke-miterlimit="10" d="M353.265,1456.34
	c-33.249,85.237-90.645,131.629-187.926,131.629c-84.605,0-157.019-52.193-186.802-126.137"/>
<g>
	<path fill="#623D18" d="M1731.625,1753.958c0,0-22.824,15.503-25.838,21.101c-3.015,5.598-13.35,9.905-15.072,22.824
		c-1.723,12.919-1.723,12.919-1.723,12.919s-18.438-29.867,2.153-51.82c8.846-9.431,20.096-11.053,24.833-11.053
		C1738.802,1747.929,1731.625,1753.958,1731.625,1753.958z"/>
	<path fill="#623D18" d="M1737.941,1755.393c0,0-1.579,6.172-4.594,10.766c-3.014,4.594-21.164,15.216-26.3,19.809
		s-13.462,16.508-13.893,20.671s8.9,7.034,17.369,4.163c8.469-2.871,29.427-17.082,31.149-34.738
		C1743.395,1758.407,1737.941,1755.393,1737.941,1755.393z"/>
</g>
<g>
	<path fill="#623D18" d="M1648.422,1764.157c0,0,4.573,15.386,7.145,18.044c2.573,2.658,3.139,9.147,9.998,12.379
		c6.859,3.232,6.859,3.232,6.859,3.232s-19.808,4.959-28.351-10.326c-3.67-6.566-2.586-13.09-1.752-15.716
		C1646.344,1759.115,1648.422,1764.157,1648.422,1764.157z"/>
	<path fill="#623D18" d="M1650.33,1760.908c0,0,3.144,1.963,5.159,4.444c2.016,2.481,4.706,14.415,6.348,18.072
		c1.641,3.657,6.78,10.373,9.012,11.345s5.468-3.695,5.369-8.896c-0.099-5.201-4.285-19.325-13.77-23.392
		C1652.963,1758.415,1650.33,1760.908,1650.33,1760.908z"/>
</g>
<g>
	<path d="M1599.682,1642.033c-1.404,2.056-3.414,5.086-8.548,10.697c-6.133,6.703-13.269,11.057-22.725,2.403l-17.249-15.786
		c-9.456-8.653-5.651-16.15,0.482-22.852c5.135-5.611,7.928-7.829,9.852-9.41c0.77-0.632,1.314-0.706,1.99-0.088l4.832,4.422
		c0.572,0.523,0.611,1.419,0.088,1.99l-9.652,10.547c-2.235,2.442-2.212,4.086,0.49,6.559l4.728,4.327l12.314-13.457
		c0.523-0.572,1.419-0.611,1.99-0.088l4.936,4.517c0.571,0.523,0.611,1.418,0.088,1.99l-12.314,13.457l5.507,5.04
		c2.702,2.473,4.341,2.35,6.576-0.092l9.652-10.547c0.523-0.572,1.418-0.611,1.99-0.088l4.832,4.422
		C1600.218,1640.614,1600.244,1641.21,1599.682,1642.033z"/>
	<path d="M1629.434,1621.801c-1.678,1.681-5.991,4.995-9.119,7.032c-7.611,4.958-15.666,7.431-22.661-3.308l-19.872-30.506
		c-0.423-0.649-0.237-1.526,0.412-1.949l7.729-5.035c0.649-0.423,1.526-0.238,1.949,0.412l19.872,30.506
		c1.999,3.068,3.617,3.359,6.39,1.552l10.149-6.611c0.649-0.423,1.526-0.238,1.949,0.411l3.574,5.488
		C1630.306,1620.56,1630.144,1621.086,1629.434,1621.801z"/>
	<path d="M1654.26,1569.219c-0.067,0.021-0.134,0.043-0.201,0.064c-3.265,0.889-8.427,2.085-14.132,3.897
		c-5.437,1.727-7.962,5.41-5.169,14.204l2.665,8.39c2.942,9.263,7.853,10.068,11.142,9.023c1.88-0.597,3.537-1.197,5.105-1.842
		l-4.903-15.438c-0.235-0.738,0.11-1.513,0.849-1.748l8.592-2.729c0.739-0.234,1.535,0.178,1.769,0.916l7.162,22.554
		c0.299,0.939,0.091,1.449-0.852,1.97c-3.39,1.889-7.875,4.053-14.588,6.184c-7.652,2.43-20.516,1.712-25.909-15.27l-2.644-8.323
		c-5.436-17.116,3.873-24.802,13.605-27.893c6.712-2.131,11.865-2.66,14.52-2.911c0.714-0.079,1.269,0.04,1.46,0.645l2.26,7.115
		C1655.225,1568.766,1654.865,1569.027,1654.26,1569.219z"/>
	<path d="M1693.414,1608.41c-11.619-0.189-20.742-6.606-20.477-22.943l0.136-8.38c0.266-16.337,9.592-22.455,21.211-22.266
		c11.619,0.189,20.742,6.606,20.477,22.943l-0.136,8.38C1714.36,1602.481,1705.033,1608.599,1693.414,1608.41z M1702.65,1577.567
		c0.137-8.45-2.621-12.087-8.537-12.184c-5.915-0.096-8.72,3.451-8.857,11.901l-0.136,8.38c-0.138,8.451,2.55,12.086,8.466,12.183
		c5.915,0.096,8.79-3.449,8.928-11.9L1702.65,1577.567z"/>
	<path d="M1755.764,1621.214l-6.526-2.245c-1.398-0.481-2.306-1.091-2.753-3.255l-6.158-31.458c-0.129-0.491-0.216-0.67-0.416-0.739
		c-0.2-0.069-0.379,0.019-0.516,0.418l-9.276,26.969c-0.252,0.732-1.058,1.125-1.79,0.874l-7.857-2.703
		c-0.732-0.252-1.126-1.058-0.874-1.79l15.689-45.614c0.481-1.398,2.002-2.141,3.401-1.66l6.726,2.313
		c1.332,0.458,1.769,1.353,2.086,3.026l6.346,32.863c0.129,0.491,0.149,0.647,0.35,0.716c0.133,0.046,0.378-0.019,0.539-0.485
		l9.688-28.167c0.252-0.733,1.035-1.059,1.767-0.807l7.857,2.702c0.732,0.252,1.148,0.991,0.896,1.724l-15.711,45.68
		C1758.75,1620.975,1757.162,1621.695,1755.764,1621.214z"/>
	<path d="M1815.475,1611.314l-9.181-6.773l-24.333,32.983c-0.46,0.623-1.346,0.757-1.97,0.297l-7.424-5.477
		c-0.623-0.459-0.757-1.346-0.297-1.969l24.333-32.983l-9.237-6.814c-0.624-0.46-0.799-1.29-0.339-1.913l4.306-5.837
		c0.46-0.623,1.304-0.7,1.928-0.24l28.109,20.737c0.624,0.46,0.855,1.331,0.396,1.955l-4.307,5.837
		C1816.999,1611.739,1816.098,1611.774,1815.475,1611.314z"/>
	<path d="M1800.845,1658.123l-6.283-7.04c-0.516-0.578-0.371-1.368,0.207-1.883l36.985-33.011c0.578-0.516,1.327-0.523,1.842,0.055
		l6.283,7.04c0.516,0.578,0.471,1.373-0.107,1.889l-36.985,33.011C1802.209,1658.7,1801.361,1658.701,1800.845,1658.123z"/>
	<path d="M1831.542,1670.706c-0.821-1.478-1.792-3.516-2.586-5.088l-14.958,8.313c-0.677,0.376-1.539,0.13-1.915-0.547l-4.413-7.94
		c-0.376-0.677-0.192-1.505,0.485-1.881l41.364-22.989c2.093-1.163,3.125-0.609,4.494,1.128c2.237,2.866,5.282,7.619,7.745,12.051
		c5.166,9.294,7,20.279-4.571,26.711l-0.554,0.308C1845.123,1687.168,1836.64,1679.878,1831.542,1670.706z M1851.372,1669.998
		c4.37-2.429,4.588-6.095,1.715-11.266c-0.479-0.862-2.483-4.179-2.956-4.883l-12.557,6.979c0.315,0.711,2.271,4.377,2.648,5.054
		c3.045,5.479,6.41,6.75,10.596,4.424L1851.372,1669.998z"/>
</g>
<g>
	<path fill="#623D18" d="M1565.808,1842.085c-1.626-1.061-5.478-4.501-9.296-9.311c-8.292-10.443-10.65-24.702,5.703-37.685
		l8.658-6.874c16.353-12.982,29.636-7.397,37.928,3.046c3.819,4.81,6.295,9.341,6.96,11.165c0.489,1.181,0.65,1.948-0.312,2.712
		l-6.665,5.291c-0.824,0.655-1.701,0.68-2.411-0.214c-0.054-0.069-0.109-0.138-0.164-0.206c-1.867-2.774-4.523-6.827-7.523-10.605
		c-3.764-4.741-9.238-6.557-18.376,0.698l-8.657,6.874c-9.139,7.255-8.612,12.998-4.848,17.738c3,3.779,6.344,7.286,8.623,9.733
		c0.055,0.068,0.109,0.138,0.164,0.206c0.709,0.894,0.487,1.742-0.337,2.396l-6.665,5.291
		C1567.626,1843.105,1566.847,1842.829,1565.808,1842.085z"/>
	<path fill="#623D18" d="M1607.882,1874.01c-12.777-6.805-19.251-19.1-9.682-37.065l4.908-9.216
		c9.568-17.965,23.384-19.454,36.161-12.648c12.777,6.805,19.251,19.1,9.682,37.065l-4.908,9.216
		C1634.474,1879.326,1620.659,1880.815,1607.882,1874.01z M1635.632,1845.052c4.949-9.293,3.955-14.892-2.55-18.356
		c-6.504-3.465-11.628-1.124-16.578,8.169l-4.908,9.215c-4.949,9.293-4.033,14.851,2.472,18.315s11.706,1.165,16.655-8.128
		L1635.632,1845.052z"/>
	<path fill="#623D18" d="M1700.442,1841.635l-17.768-1.218c-4.113-0.281-5.697,1.017-6.009,5.568l-0.54,7.877l22.669,1.553
		c0.962,0.066,1.696,0.908,1.63,1.871l-0.57,8.314c-0.066,0.963-0.908,1.696-1.87,1.631l-22.669-1.554l-1.751,25.558
		c-0.066,0.963-0.908,1.696-1.871,1.631l-11.378-0.78c-0.963-0.065-1.697-0.907-1.631-1.87l3.101-45.25
		c1.091-15.93,11.349-18.041,22.639-17.268c9.453,0.648,13.781,1.648,16.814,2.296c1.213,0.259,1.708,0.732,1.63,1.87l-0.558,8.14
		C1702.247,1840.967,1701.405,1841.7,1700.442,1841.635z"/>
	<path fill="#623D18" d="M1745.279,1829.115l-16.956,5.449c-3.926,1.262-4.917,3.054-3.521,7.397l2.416,7.518l21.633-6.952
		c0.919-0.295,1.912,0.215,2.208,1.134l2.55,7.936c0.295,0.919-0.215,1.912-1.134,2.207l-21.633,6.951l7.837,24.391
		c0.295,0.918-0.215,1.912-1.133,2.207l-10.859,3.489c-0.918,0.295-1.912-0.215-2.207-1.134l-13.876-43.184
		c-4.885-15.201,3.862-20.961,14.637-24.424c9.021-2.898,13.412-3.572,16.47-4.094c1.223-0.209,1.858,0.048,2.207,1.134l2.496,7.768
		C1746.708,1827.827,1746.198,1828.82,1745.279,1829.115z"/>
	<path fill="#623D18" d="M1815.824,1841.339c-2.084,2.298-5.08,5.694-12.374,11.742c-8.712,7.224-18.259,11.379-28.451-0.912
		l-18.592-22.422c-10.192-12.292-4.217-20.893,4.495-28.116c7.294-6.049,11.119-8.308,13.762-9.931
		c1.058-0.648,1.743-0.647,2.471,0.231l5.208,6.28c0.616,0.743,0.512,1.854-0.23,2.471l-13.71,11.368
		c-3.174,2.632-3.426,4.664-0.514,8.176l5.096,6.146l17.492-14.504c0.743-0.616,1.854-0.513,2.471,0.23l5.32,6.416
		c0.616,0.742,0.512,1.854-0.23,2.471l-17.492,14.504l5.936,7.158c2.912,3.512,4.957,3.641,8.13,1.009l13.71-11.368
		c0.743-0.616,1.854-0.512,2.471,0.23l5.208,6.281C1816.726,1839.679,1816.657,1840.42,1815.824,1841.339z"/>
	<path fill="#623D18" d="M1852.237,1786.101c-1.088,2.905-2.619,7.168-7.164,15.481c-5.429,9.931-12.767,17.317-26.777,9.658
		l-25.557-13.972c-14.011-7.659-11.634-17.858-6.206-27.789c4.545-8.313,7.265-11.826,9.123-14.311
		c0.743-0.993,1.38-1.245,2.381-0.697l7.159,3.913c0.847,0.463,1.161,1.535,0.698,2.382l-8.543,15.627
		c-1.978,3.618-1.462,5.6,2.541,7.788l7.005,3.83l10.9-19.938c0.463-0.847,1.534-1.16,2.381-0.697l7.313,3.998
		c0.847,0.463,1.161,1.534,0.698,2.381l-10.899,19.938l8.16,4.461c4.003,2.188,5.95,1.554,7.928-2.064l8.543-15.627
		c0.463-0.847,1.535-1.161,2.381-0.698l7.159,3.914C1852.462,1784.225,1852.672,1784.939,1852.237,1786.101z"/>
</g>
<path fill="none" stroke="#623D18" stroke-width="12.0579" stroke-miterlimit="10" d="M1515.858,1773.365"/>
<circle fill="none" stroke="#623D18" stroke-width="12.422" stroke-miterlimit="10" cx="1695.581" cy="1719.362" r="194.959"/>
<path fill="#2A160C" d="M1366.858-443.756c4.075-1.482,12.782-20.98,14.449-22.092c1.667-1.111-0.741-2.782,4.075-4.635
	c4.816-1.852,9.633-15.56,12.226-17.413c2.593-1.852-5.557,1.482,10.744,3.334c0,0,2.408-0.556,4.816-2.593
	c2.408-2.038,21.303-26.49,23.896-29.083c2.593-2.593,2.593-2.593,2.593-2.593s2.964,2.408,6.669,4.816
	c3.705,2.408,2.593,3.705,3.705,2.408s15.375-16.487,15.375-16.487s12.411,14.264,19.08,23.896
	c6.669,9.633,12.041,16.857,12.597,16.95c0.556,0.093,3.149-1.019,5.372-2.686c2.223-1.667,3.149-4.446,4.446-1.667
	s12.226,13.893,13.523,14.634c1.297,0.741,0.556,1.482,4.446,1.852c3.89,0.37,4.261-0.556,8.336,1.297
	c4.075,1.852,14.449,13.152,20.747,16.301c6.298,3.149,14.44,7.225,14.44,7.225s-23.263-0.5-39.38,1.723
	s-21.835-7.095-39.016-17.654c-17.181-10.559-25.517-14.449-36.076-10.003c-10.559,4.446-39.457,13.338-54.462,17.228
	C1384.456-455.108,1366.858-443.756,1366.858-443.756z"/>
<path fill="#FFFFFF" stroke="#FFFFFF" stroke-width="0.7318" stroke-miterlimit="10" d="M1410.912-487.165
	c0.628-0.269,1.796,0.269,1.796,0.269s1.526,0.18,1.526-0.18c0-0.359-0.359-0.988-0.628-1.706c-0.269-0.718,0.449-1.526,0.539-1.616
	c0.09-0.09-1.706-0.18-0.18-1.167s1.706-0.539,1.706-1.437s-0.628-1.616-0.628-1.616s-4.669,3.771-5.567,5.028
	c-0.233,0.326-0.471,0.712-0.697,1.105c0.329,0.639,0.652,1.284,0.968,1.933C1410.123-486.769,1410.588-487.026,1410.912-487.165z"
	/>
<path fill="#FFFFFF" stroke="#FFFFFF" stroke-width="0.7318" stroke-miterlimit="10" d="M1464.602-524.514
	c0,0-10.953,12.659-10.953,13.198c0,0.539,1.437,0.539,1.796,1.257s0.09,1.347-1.167,2.155c-1.257,0.808-5.207,4.22-5.477,5.028
	c-0.269,0.808-0.269,3.412-0.988,4.399s-1.347,1.795-1.526,2.244c-0.18,0.449-1.257,1.796-1.257,2.963c0,1.167,0.629,1.975,0,2.334
	c-0.628,0.359-1.257,1.347-1.975,1.975s-1.975,0.808-2.514,2.514s0,2.873,0,2.873s4.399-3.412,4.759-3.412s1.437,0.269,1.437,1.077
	s0.359,2.065-0.359,3.232c-0.718,1.167-1.975,2.514-2.245,3.232c-0.269,0.718,0,2.424,0,2.424h0.808c0,0-0.18-0.718,1.167-2.334
	c1.347-1.616,0.629-2.245,2.424-1.975s3.531,2.604,3.92,1.167c0.389-1.437,0.03-2.245,0.838-3.95
	c0.808-1.706,0.718-2.424,2.693-3.502s3.501-2.245,4.31-2.334c0.808-0.09,2.604,0.449,1.796-0.449
	c-0.808-0.898-1.257-1.796-2.424-1.347c-1.167,0.449-1.885,0.449-2.334-0.808c-0.449-1.257-1.077-1.437-1.616-2.245
	s-0.718-2.155-0.628-3.591c0.09-1.437,1.347-2.604,1.616-2.873c0.269-0.269,3.322-3.501,4.31-5.028
	c0.988-1.526,1.347-1.526,0.539-2.514c-0.808-0.988-1.796-0.898-1.257-1.706s0.898-4.758,0.898-5.477s-0.269-0.359,0.898-1.975
	c1.167-1.616,2.514-1.885,2.514-4.22S1464.602-524.514,1464.602-524.514z"/>
<path fill="#FFFFFF" stroke="#FFFFFF" stroke-width="0.506" stroke-miterlimit="10" d="M1413.247-482.761
	c0,0-5.711,3.352-6.891,3.352s-2.111-0.993-2.669-0.993s-1.986,0.745-2.855,0.993c-0.869,0.248-0.869-2.049-1.614,0
	c-0.745,2.049-0.621,2.669-0.435,2.856c0.186,0.186,0.683,0.621,1.614,0.372c0.931-0.248,1.862-0.683,2.235-0.248
	s0.993,0.435,0.248,1.49c-0.745,1.055-2.048,2.856-2.483,3.538c-0.435,0.683-0.124,0.931-1.242,1.304
	c-1.117,0.372-0.869-0.062-2.545,0.497c-1.676,0.559-2.235,0.186-2.359,0.621s-0.062,0.435,0.931,1.055
	c0.993,0.621,1.117,0.248,1.738,1.179s1.366,1.055,2.173,0.745c0.807-0.31,2.607-1.552,3.29-1.924s1.505-0.31,1.342-1.366
	s-0.458-0.993,0-2.049c0.458-1.055,0.396-1.304,1.265-1.552c0.869-0.248,2.98-1.242,3.476-1.986
	c0.497-0.745,0.435-1.366,0.435-1.924s0.062-1.614,1.428-1.676c1.366-0.062,1.862,0.186,2.235,0
	c0.372-0.186-0.186-1.676,0.186-2.731C1413.123-482.265,1413.247-482.761,1413.247-482.761z"/>
<path fill="#FFFFFF" stroke="#FFFFFF" stroke-width="0.7318" stroke-miterlimit="10" d="M1505.433-483.278v-0.718
	c0,0-3.232,1.118-3.681,1.457c-0.449,0.339-0.718,0.339-1.616,0.608s-2.693,0.628-3.322,0.988c-0.629,0.359-1.885,1.885-2.604,2.514
	c-0.718,0.628-1.526,2.334-1.796,2.873c-0.269,0.539-0.359,1.975-1.257,2.334s-2.693,1.885-3.232,2.245s-0.988,1.428,1.526,0.669
	s4.759-3.901,6.105-4.53s2.514-0.09,3.232-0.718s1.257-2.424,2.245-2.783c0.988-0.359,2.245-0.718,3.142-0.988
	s2.245-0.269,2.783-0.09s0.09-0.628,0-0.988c-0.09-0.359-0.539-0.808-0.449-1.167c0.09-0.359-0.18-0.967-0.18-0.967
	L1505.433-483.278z"/>
<g>
	<path fill="#623D18" d="M1484.221-446.331c0,0-13.25,9-15,12.25s-7.75,5.75-8.75,13.25s-1,7.5-1,7.5s-10.704-17.339,1.25-30.083
		c5.135-5.475,11.667-6.417,14.417-6.417C1488.387-449.831,1484.221-446.331,1484.221-446.331z"/>
	<path fill="#623D18" d="M1487.887-445.498c0,0-0.917,3.583-2.667,6.25c-1.75,2.667-12.286,8.833-15.268,11.5
		c-2.982,2.667-7.815,9.583-8.065,12c-0.25,2.417,5.167,4.083,10.083,2.417c4.917-1.667,17.083-9.917,18.083-20.167
		S1487.887-445.498,1487.887-445.498z"/>
</g>
<g>
	<path fill="#623D18" d="M1435.919-440.41c0,0,2.655,8.932,4.148,10.475c1.493,1.543,1.822,5.31,5.804,7.186
		c3.982,1.876,3.982,1.876,3.982,1.876s-11.499,2.879-16.458-5.995c-2.13-3.812-1.501-7.599-1.017-9.124
		C1434.712-443.337,1435.919-440.41,1435.919-440.41z"/>
	<path fill="#623D18" d="M1437.027-442.296c0,0,1.825,1.14,2.995,2.58c1.17,1.44,2.732,8.368,3.685,10.492
		c0.953,2.123,3.936,6.022,5.232,6.586c1.296,0.564,3.174-2.145,3.117-5.164c-0.057-3.02-2.487-11.219-7.994-13.58
		S1437.027-442.296,1437.027-442.296z"/>
</g>
<circle fill="none" cx="1461.879" cy="-449.831" r="81.364"/>
<text transform="matrix(0.6751 -0.7378 0.7378 0.6751 1393.8323 -495.9948)"><tspan x="0" y="0" font-family="'NeoSans-Bold'" font-size="40.8828">E</tspan><tspan x="22.008" y="-0.059" font-family="'NeoSans-Bold'" font-size="40.8828" rotate="14.467">L</tspan><tspan x="41.011" y="4.233" font-family="'NeoSans-Bold'" font-size="40.8828" rotate="29.908">G</tspan><tspan x="62.556" y="15.879" font-family="'NeoSans-Bold'" font-size="40.8828" rotate="48.469">O</tspan><tspan x="80.595" y="35.28" font-family="'NeoSans-Bold'" font-size="40.8828" rotate="66.524">N</tspan><tspan x="91.53" y="60.817" font-family="'NeoSans-Bold'" font-size="40.8828" rotate="83.967">T</tspan><tspan x="93.467" y="83.271" font-family="'NeoSans-Bold'" font-size="40.8828" rotate="95.785">I</tspan><tspan x="93.255" y="94.617" font-family="'NeoSans-Bold'" font-size="40.8828" rotate="108.486">P</tspan></text>
<circle fill="none" cx="1460.189" cy="-466.56" r="101.364"/>
<text transform="matrix(0.622 0.783 -0.783 0.622 1371.8882 -414.7478)"><tspan x="0" y="0" fill="#623D18" font-family="'NeoSans-Bold'" font-size="50.9321">C</tspan><tspan x="38.66" y="-1.363" fill="#623D18" font-family="'NeoSans-Bold'" font-size="50.9321" rotate="-23.557">O</tspan><tspan x="79.36" y="-22.175" fill="#623D18" font-family="'NeoSans-Bold'" font-size="50.9321" rotate="-47.742">F</tspan><tspan x="104.162" y="-52.042" fill="#623D18" font-family="'NeoSans-Bold'" font-size="50.9321" rotate="-69.513">F</tspan><tspan x="116.056" y="-89.045" fill="#623D18" font-family="'NeoSans-Bold'" font-size="50.9321" rotate="-91.411">E</tspan><tspan x="113.354" y="-127.698" fill="#623D18" font-family="'NeoSans-Bold'" font-size="50.9321" rotate="-113.133">E</tspan></text>
<path fill="none" stroke="#623D18" stroke-width="7" stroke-miterlimit="10" d="M1358.961-435.065"/>
<circle fill="none" stroke="#623D18" stroke-width="7.2114" stroke-miterlimit="10" cx="1463.296" cy="-466.415" r="113.18"/>
</svg>
